<?xml version="1.0" encoding="utf-8" standalone="no"?>
<!DOCTYPE svg PUBLIC "-//W3C//DTD SVG 1.1//EN"
  "http://www.w3.org/Graphics/SVG/1.1/DTD/svg11.dtd">
<svg xmlns:xlink="http://www.w3.org/1999/xlink" width="460.8pt" height="345.6pt" viewBox="0 0 460.8 345.6" xmlns="http://www.w3.org/2000/svg" version="1.1">
 <metadata>
  <rdf:RDF xmlns:dc="http://purl.org/dc/elements/1.1/" xmlns:cc="http://creativecommons.org/ns#" xmlns:rdf="http://www.w3.org/1999/02/22-rdf-syntax-ns#">
   <cc:Work>
    <dc:type rdf:resource="http://purl.org/dc/dcmitype/StillImage"/>
    <dc:date>2025-09-15T11:20:47.350330</dc:date>
    <dc:format>image/svg+xml</dc:format>
    <dc:creator>
     <cc:Agent>
      <dc:title>Matplotlib v3.10.5, https://matplotlib.org/</dc:title>
     </cc:Agent>
    </dc:creator>
   </cc:Work>
  </rdf:RDF>
 </metadata>
 <defs>
  <style type="text/css">*{stroke-linejoin: round; stroke-linecap: butt}</style>
 </defs>
 <g id="figure_1">
  <g id="patch_1">
   <path d="M 0 345.6 
L 460.8 345.6 
L 460.8 0 
L 0 0 
z
" style="fill: #ffffff"/>
  </g>
  <g id="axes_1">
   <g id="patch_2">
    <path d="M 57.538622 300.472 
L 440.415 300.472 
L 440.415 10.8 
L 57.538622 10.8 
z
" style="fill: #ffffff"/>
   </g>
   <g id="matplotlib.axis_1">
    <g id="xtick_1">
     <g id="line2d_1">
      <defs>
       <path id="m2ad22599a4" d="M 0 0 
L 0 3.5 
" style="stroke: #000000; stroke-width: 0.8"/>
      </defs>
      <g>
       <use xlink:href="#m2ad22599a4" x="57.538622" y="300.472" style="stroke: #000000; stroke-width: 0.8"/>
      </g>
     </g>
     <g id="text_1">
      <!-- 0 -->
      <g transform="translate(54.357372 315.070437) scale(0.1 -0.1)">
       <defs>
        <path id="DejaVuSans-30" d="M 2034 4250 
Q 1547 4250 1301 3770 
Q 1056 3291 1056 2328 
Q 1056 1369 1301 889 
Q 1547 409 2034 409 
Q 2525 409 2770 889 
Q 3016 1369 3016 2328 
Q 3016 3291 2770 3770 
Q 2525 4250 2034 4250 
z
M 2034 4750 
Q 2819 4750 3233 4129 
Q 3647 3509 3647 2328 
Q 3647 1150 3233 529 
Q 2819 -91 2034 -91 
Q 1250 -91 836 529 
Q 422 1150 422 2328 
Q 422 3509 836 4129 
Q 1250 4750 2034 4750 
z
" transform="scale(0.015625)"/>
       </defs>
       <use xlink:href="#DejaVuSans-30"/>
      </g>
     </g>
    </g>
    <g id="xtick_2">
     <g id="line2d_2">
      <g>
       <use xlink:href="#m2ad22599a4" x="266.746569" y="300.472" style="stroke: #000000; stroke-width: 0.8"/>
      </g>
     </g>
     <g id="text_2">
      <!-- $v_{\text{term}}$ -->
      <g transform="translate(255.246569 315.070437) scale(0.1 -0.1)">
       <defs>
        <path id="DejaVuSans-Oblique-76" d="M 459 3500 
L 1069 3500 
L 1581 525 
L 3256 3500 
L 3866 3500 
L 1875 0 
L 1100 0 
L 459 3500 
z
" transform="scale(0.015625)"/>
        <path id="DejaVuSans-74" d="M 1172 4494 
L 1172 3500 
L 2356 3500 
L 2356 3053 
L 1172 3053 
L 1172 1153 
Q 1172 725 1289 603 
Q 1406 481 1766 481 
L 2356 481 
L 2356 0 
L 1766 0 
Q 1100 0 847 248 
Q 594 497 594 1153 
L 594 3053 
L 172 3053 
L 172 3500 
L 594 3500 
L 594 4494 
L 1172 4494 
z
" transform="scale(0.015625)"/>
        <path id="DejaVuSans-65" d="M 3597 1894 
L 3597 1613 
L 953 1613 
Q 991 1019 1311 708 
Q 1631 397 2203 397 
Q 2534 397 2845 478 
Q 3156 559 3463 722 
L 3463 178 
Q 3153 47 2828 -22 
Q 2503 -91 2169 -91 
Q 1331 -91 842 396 
Q 353 884 353 1716 
Q 353 2575 817 3079 
Q 1281 3584 2069 3584 
Q 2775 3584 3186 3129 
Q 3597 2675 3597 1894 
z
M 3022 2063 
Q 3016 2534 2758 2815 
Q 2500 3097 2075 3097 
Q 1594 3097 1305 2825 
Q 1016 2553 972 2059 
L 3022 2063 
z
" transform="scale(0.015625)"/>
        <path id="DejaVuSans-72" d="M 2631 2963 
Q 2534 3019 2420 3045 
Q 2306 3072 2169 3072 
Q 1681 3072 1420 2755 
Q 1159 2438 1159 1844 
L 1159 0 
L 581 0 
L 581 3500 
L 1159 3500 
L 1159 2956 
Q 1341 3275 1631 3429 
Q 1922 3584 2338 3584 
Q 2397 3584 2469 3576 
Q 2541 3569 2628 3553 
L 2631 2963 
z
" transform="scale(0.015625)"/>
        <path id="DejaVuSans-6d" d="M 3328 2828 
Q 3544 3216 3844 3400 
Q 4144 3584 4550 3584 
Q 5097 3584 5394 3201 
Q 5691 2819 5691 2113 
L 5691 0 
L 5113 0 
L 5113 2094 
Q 5113 2597 4934 2840 
Q 4756 3084 4391 3084 
Q 3944 3084 3684 2787 
Q 3425 2491 3425 1978 
L 3425 0 
L 2847 0 
L 2847 2094 
Q 2847 2600 2669 2842 
Q 2491 3084 2119 3084 
Q 1678 3084 1418 2786 
Q 1159 2488 1159 1978 
L 1159 0 
L 581 0 
L 581 3500 
L 1159 3500 
L 1159 2956 
Q 1356 3278 1631 3431 
Q 1906 3584 2284 3584 
Q 2666 3584 2933 3390 
Q 3200 3197 3328 2828 
z
" transform="scale(0.015625)"/>
       </defs>
       <use xlink:href="#DejaVuSans-Oblique-76" transform="translate(0 0.3125)"/>
       <use xlink:href="#DejaVuSans-74" transform="translate(59.179688 -16.09375) scale(0.7)"/>
       <use xlink:href="#DejaVuSans-65" transform="translate(86.625977 -16.09375) scale(0.7)"/>
       <use xlink:href="#DejaVuSans-72" transform="translate(129.692383 -16.09375) scale(0.7)"/>
       <use xlink:href="#DejaVuSans-6d" transform="translate(158.47168 -16.09375) scale(0.7)"/>
      </g>
     </g>
    </g>
    <g id="xtick_3">
     <g id="line2d_3">
      <g>
       <use xlink:href="#m2ad22599a4" x="440.415" y="300.472" style="stroke: #000000; stroke-width: 0.8"/>
      </g>
     </g>
     <g id="text_3">
      <!-- 100 -->
      <g transform="translate(430.87125 315.070437) scale(0.1 -0.1)">
       <defs>
        <path id="DejaVuSans-31" d="M 794 531 
L 1825 531 
L 1825 4091 
L 703 3866 
L 703 4441 
L 1819 4666 
L 2450 4666 
L 2450 531 
L 3481 531 
L 3481 0 
L 794 0 
L 794 531 
z
" transform="scale(0.015625)"/>
       </defs>
       <use xlink:href="#DejaVuSans-31"/>
       <use xlink:href="#DejaVuSans-30" transform="translate(63.623047 0)"/>
       <use xlink:href="#DejaVuSans-30" transform="translate(127.246094 0)"/>
      </g>
     </g>
    </g>
    <g id="text_4">
     <!-- Hastighet $v$ (m/s) -->
     <g transform="translate(205.576811 328.750125) scale(0.1 -0.1)">
      <defs>
       <path id="DejaVuSans-48" d="M 628 4666 
L 1259 4666 
L 1259 2753 
L 3553 2753 
L 3553 4666 
L 4184 4666 
L 4184 0 
L 3553 0 
L 3553 2222 
L 1259 2222 
L 1259 0 
L 628 0 
L 628 4666 
z
" transform="scale(0.015625)"/>
       <path id="DejaVuSans-61" d="M 2194 1759 
Q 1497 1759 1228 1600 
Q 959 1441 959 1056 
Q 959 750 1161 570 
Q 1363 391 1709 391 
Q 2188 391 2477 730 
Q 2766 1069 2766 1631 
L 2766 1759 
L 2194 1759 
z
M 3341 1997 
L 3341 0 
L 2766 0 
L 2766 531 
Q 2569 213 2275 61 
Q 1981 -91 1556 -91 
Q 1019 -91 701 211 
Q 384 513 384 1019 
Q 384 1609 779 1909 
Q 1175 2209 1959 2209 
L 2766 2209 
L 2766 2266 
Q 2766 2663 2505 2880 
Q 2244 3097 1772 3097 
Q 1472 3097 1187 3025 
Q 903 2953 641 2809 
L 641 3341 
Q 956 3463 1253 3523 
Q 1550 3584 1831 3584 
Q 2591 3584 2966 3190 
Q 3341 2797 3341 1997 
z
" transform="scale(0.015625)"/>
       <path id="DejaVuSans-73" d="M 2834 3397 
L 2834 2853 
Q 2591 2978 2328 3040 
Q 2066 3103 1784 3103 
Q 1356 3103 1142 2972 
Q 928 2841 928 2578 
Q 928 2378 1081 2264 
Q 1234 2150 1697 2047 
L 1894 2003 
Q 2506 1872 2764 1633 
Q 3022 1394 3022 966 
Q 3022 478 2636 193 
Q 2250 -91 1575 -91 
Q 1294 -91 989 -36 
Q 684 19 347 128 
L 347 722 
Q 666 556 975 473 
Q 1284 391 1588 391 
Q 1994 391 2212 530 
Q 2431 669 2431 922 
Q 2431 1156 2273 1281 
Q 2116 1406 1581 1522 
L 1381 1569 
Q 847 1681 609 1914 
Q 372 2147 372 2553 
Q 372 3047 722 3315 
Q 1072 3584 1716 3584 
Q 2034 3584 2315 3537 
Q 2597 3491 2834 3397 
z
" transform="scale(0.015625)"/>
       <path id="DejaVuSans-69" d="M 603 3500 
L 1178 3500 
L 1178 0 
L 603 0 
L 603 3500 
z
M 603 4863 
L 1178 4863 
L 1178 4134 
L 603 4134 
L 603 4863 
z
" transform="scale(0.015625)"/>
       <path id="DejaVuSans-67" d="M 2906 1791 
Q 2906 2416 2648 2759 
Q 2391 3103 1925 3103 
Q 1463 3103 1205 2759 
Q 947 2416 947 1791 
Q 947 1169 1205 825 
Q 1463 481 1925 481 
Q 2391 481 2648 825 
Q 2906 1169 2906 1791 
z
M 3481 434 
Q 3481 -459 3084 -895 
Q 2688 -1331 1869 -1331 
Q 1566 -1331 1297 -1286 
Q 1028 -1241 775 -1147 
L 775 -588 
Q 1028 -725 1275 -790 
Q 1522 -856 1778 -856 
Q 2344 -856 2625 -561 
Q 2906 -266 2906 331 
L 2906 616 
Q 2728 306 2450 153 
Q 2172 0 1784 0 
Q 1141 0 747 490 
Q 353 981 353 1791 
Q 353 2603 747 3093 
Q 1141 3584 1784 3584 
Q 2172 3584 2450 3431 
Q 2728 3278 2906 2969 
L 2906 3500 
L 3481 3500 
L 3481 434 
z
" transform="scale(0.015625)"/>
       <path id="DejaVuSans-68" d="M 3513 2113 
L 3513 0 
L 2938 0 
L 2938 2094 
Q 2938 2591 2744 2837 
Q 2550 3084 2163 3084 
Q 1697 3084 1428 2787 
Q 1159 2491 1159 1978 
L 1159 0 
L 581 0 
L 581 4863 
L 1159 4863 
L 1159 2956 
Q 1366 3272 1645 3428 
Q 1925 3584 2291 3584 
Q 2894 3584 3203 3211 
Q 3513 2838 3513 2113 
z
" transform="scale(0.015625)"/>
       <path id="DejaVuSans-20" transform="scale(0.015625)"/>
       <path id="DejaVuSans-28" d="M 1984 4856 
Q 1566 4138 1362 3434 
Q 1159 2731 1159 2009 
Q 1159 1288 1364 580 
Q 1569 -128 1984 -844 
L 1484 -844 
Q 1016 -109 783 600 
Q 550 1309 550 2009 
Q 550 2706 781 3412 
Q 1013 4119 1484 4856 
L 1984 4856 
z
" transform="scale(0.015625)"/>
       <path id="DejaVuSans-2f" d="M 1625 4666 
L 2156 4666 
L 531 -594 
L 0 -594 
L 1625 4666 
z
" transform="scale(0.015625)"/>
       <path id="DejaVuSans-29" d="M 513 4856 
L 1013 4856 
Q 1481 4119 1714 3412 
Q 1947 2706 1947 2009 
Q 1947 1309 1714 600 
Q 1481 -109 1013 -844 
L 513 -844 
Q 928 -128 1133 580 
Q 1338 1288 1338 2009 
Q 1338 2731 1133 3434 
Q 928 4138 513 4856 
z
" transform="scale(0.015625)"/>
      </defs>
      <use xlink:href="#DejaVuSans-48" transform="translate(0 0.015625)"/>
      <use xlink:href="#DejaVuSans-61" transform="translate(75.195312 0.015625)"/>
      <use xlink:href="#DejaVuSans-73" transform="translate(136.474609 0.015625)"/>
      <use xlink:href="#DejaVuSans-74" transform="translate(188.574219 0.015625)"/>
      <use xlink:href="#DejaVuSans-69" transform="translate(227.783203 0.015625)"/>
      <use xlink:href="#DejaVuSans-67" transform="translate(255.566406 0.015625)"/>
      <use xlink:href="#DejaVuSans-68" transform="translate(319.042969 0.015625)"/>
      <use xlink:href="#DejaVuSans-65" transform="translate(382.421875 0.015625)"/>
      <use xlink:href="#DejaVuSans-74" transform="translate(443.945312 0.015625)"/>
      <use xlink:href="#DejaVuSans-20" transform="translate(483.154297 0.015625)"/>
      <use xlink:href="#DejaVuSans-Oblique-76" transform="translate(514.941406 0.015625)"/>
      <use xlink:href="#DejaVuSans-20" transform="translate(574.121094 0.015625)"/>
      <use xlink:href="#DejaVuSans-28" transform="translate(605.908203 0.015625)"/>
      <use xlink:href="#DejaVuSans-6d" transform="translate(644.921875 0.015625)"/>
      <use xlink:href="#DejaVuSans-2f" transform="translate(742.333984 0.015625)"/>
      <use xlink:href="#DejaVuSans-73" transform="translate(776.025391 0.015625)"/>
      <use xlink:href="#DejaVuSans-29" transform="translate(828.125 0.015625)"/>
     </g>
    </g>
   </g>
   <g id="matplotlib.axis_2">
    <g id="ytick_1">
     <g id="line2d_4">
      <defs>
       <path id="m4b8268c8d8" d="M 0 0 
L -3.5 0 
" style="stroke: #000000; stroke-width: 0.8"/>
      </defs>
      <g>
       <use xlink:href="#m4b8268c8d8" x="57.538622" y="286.678095" style="stroke: #000000; stroke-width: 0.8"/>
      </g>
     </g>
     <g id="text_5">
      <!-- 0.0 -->
      <g transform="translate(34.635497 290.477314) scale(0.1 -0.1)">
       <defs>
        <path id="DejaVuSans-2e" d="M 684 794 
L 1344 794 
L 1344 0 
L 684 0 
L 684 794 
z
" transform="scale(0.015625)"/>
       </defs>
       <use xlink:href="#DejaVuSans-30"/>
       <use xlink:href="#DejaVuSans-2e" transform="translate(63.623047 0)"/>
       <use xlink:href="#DejaVuSans-30" transform="translate(95.410156 0)"/>
      </g>
     </g>
    </g>
    <g id="ytick_2">
     <g id="line2d_5">
      <g>
       <use xlink:href="#m4b8268c8d8" x="57.538622" y="204.310492" style="stroke: #000000; stroke-width: 0.8"/>
      </g>
     </g>
     <g id="text_6">
      <!-- $m\cdot g$ -->
      <g transform="translate(27.338622 208.099554) scale(0.1 -0.1)">
       <defs>
        <path id="DejaVuSans-Oblique-6d" d="M 5747 2113 
L 5338 0 
L 4763 0 
L 5166 2094 
Q 5191 2228 5203 2325 
Q 5216 2422 5216 2491 
Q 5216 2772 5059 2928 
Q 4903 3084 4622 3084 
Q 4203 3084 3875 2770 
Q 3547 2456 3450 1953 
L 3066 0 
L 2491 0 
L 2900 2094 
Q 2925 2209 2937 2307 
Q 2950 2406 2950 2484 
Q 2950 2769 2794 2926 
Q 2638 3084 2363 3084 
Q 1938 3084 1609 2770 
Q 1281 2456 1184 1953 
L 800 0 
L 225 0 
L 909 3500 
L 1484 3500 
L 1375 2956 
Q 1609 3263 1923 3423 
Q 2238 3584 2597 3584 
Q 2978 3584 3223 3384 
Q 3469 3184 3519 2828 
Q 3781 3197 4126 3390 
Q 4472 3584 4856 3584 
Q 5306 3584 5551 3325 
Q 5797 3066 5797 2591 
Q 5797 2488 5784 2364 
Q 5772 2241 5747 2113 
z
" transform="scale(0.015625)"/>
        <path id="DejaVuSans-22c5" d="M 684 2619 
L 1344 2619 
L 1344 1825 
L 684 1825 
L 684 2619 
z
" transform="scale(0.015625)"/>
        <path id="DejaVuSans-Oblique-67" d="M 3816 3500 
L 3219 434 
Q 3047 -456 2561 -893 
Q 2075 -1331 1253 -1331 
Q 950 -1331 690 -1286 
Q 431 -1241 206 -1147 
L 313 -588 
Q 525 -725 762 -790 
Q 1000 -856 1269 -856 
Q 1816 -856 2167 -557 
Q 2519 -259 2631 300 
L 2681 563 
Q 2441 288 2122 144 
Q 1803 0 1434 0 
Q 903 0 598 351 
Q 294 703 294 1319 
Q 294 1803 478 2267 
Q 663 2731 997 3091 
Q 1219 3328 1514 3456 
Q 1809 3584 2131 3584 
Q 2484 3584 2746 3420 
Q 3009 3256 3138 2956 
L 3238 3500 
L 3816 3500 
z
M 2950 2216 
Q 2950 2641 2750 2872 
Q 2550 3103 2181 3103 
Q 1953 3103 1747 3012 
Q 1541 2922 1394 2759 
Q 1156 2491 1023 2127 
Q 891 1763 891 1375 
Q 891 944 1092 712 
Q 1294 481 1672 481 
Q 2219 481 2584 976 
Q 2950 1472 2950 2216 
z
" transform="scale(0.015625)"/>
       </defs>
       <use xlink:href="#DejaVuSans-Oblique-6d"/>
       <use xlink:href="#DejaVuSans-22c5" transform="translate(116.894531 0)"/>
       <use xlink:href="#DejaVuSans-Oblique-67" transform="translate(168.164062 0)"/>
      </g>
     </g>
    </g>
    <g id="text_7">
     <!-- Krefter $F$ (Newton) -->
     <g transform="translate(21.258935 201.986) rotate(-90) scale(0.1 -0.1)">
      <defs>
       <path id="DejaVuSans-4b" d="M 628 4666 
L 1259 4666 
L 1259 2694 
L 3353 4666 
L 4166 4666 
L 1850 2491 
L 4331 0 
L 3500 0 
L 1259 2247 
L 1259 0 
L 628 0 
L 628 4666 
z
" transform="scale(0.015625)"/>
       <path id="DejaVuSans-66" d="M 2375 4863 
L 2375 4384 
L 1825 4384 
Q 1516 4384 1395 4259 
Q 1275 4134 1275 3809 
L 1275 3500 
L 2222 3500 
L 2222 3053 
L 1275 3053 
L 1275 0 
L 697 0 
L 697 3053 
L 147 3053 
L 147 3500 
L 697 3500 
L 697 3744 
Q 697 4328 969 4595 
Q 1241 4863 1831 4863 
L 2375 4863 
z
" transform="scale(0.015625)"/>
       <path id="DejaVuSans-Oblique-46" d="M 1081 4666 
L 3756 4666 
L 3653 4134 
L 1606 4134 
L 1338 2759 
L 3188 2759 
L 3084 2228 
L 1234 2228 
L 800 0 
L 172 0 
L 1081 4666 
z
" transform="scale(0.015625)"/>
       <path id="DejaVuSans-4e" d="M 628 4666 
L 1478 4666 
L 3547 763 
L 3547 4666 
L 4159 4666 
L 4159 0 
L 3309 0 
L 1241 3903 
L 1241 0 
L 628 0 
L 628 4666 
z
" transform="scale(0.015625)"/>
       <path id="DejaVuSans-77" d="M 269 3500 
L 844 3500 
L 1563 769 
L 2278 3500 
L 2956 3500 
L 3675 769 
L 4391 3500 
L 4966 3500 
L 4050 0 
L 3372 0 
L 2619 2869 
L 1863 0 
L 1184 0 
L 269 3500 
z
" transform="scale(0.015625)"/>
       <path id="DejaVuSans-6f" d="M 1959 3097 
Q 1497 3097 1228 2736 
Q 959 2375 959 1747 
Q 959 1119 1226 758 
Q 1494 397 1959 397 
Q 2419 397 2687 759 
Q 2956 1122 2956 1747 
Q 2956 2369 2687 2733 
Q 2419 3097 1959 3097 
z
M 1959 3584 
Q 2709 3584 3137 3096 
Q 3566 2609 3566 1747 
Q 3566 888 3137 398 
Q 2709 -91 1959 -91 
Q 1206 -91 779 398 
Q 353 888 353 1747 
Q 353 2609 779 3096 
Q 1206 3584 1959 3584 
z
" transform="scale(0.015625)"/>
       <path id="DejaVuSans-6e" d="M 3513 2113 
L 3513 0 
L 2938 0 
L 2938 2094 
Q 2938 2591 2744 2837 
Q 2550 3084 2163 3084 
Q 1697 3084 1428 2787 
Q 1159 2491 1159 1978 
L 1159 0 
L 581 0 
L 581 3500 
L 1159 3500 
L 1159 2956 
Q 1366 3272 1645 3428 
Q 1925 3584 2291 3584 
Q 2894 3584 3203 3211 
Q 3513 2838 3513 2113 
z
" transform="scale(0.015625)"/>
      </defs>
      <use xlink:href="#DejaVuSans-4b" transform="translate(0 0.015625)"/>
      <use xlink:href="#DejaVuSans-72" transform="translate(65.576172 0.015625)"/>
      <use xlink:href="#DejaVuSans-65" transform="translate(106.689453 0.015625)"/>
      <use xlink:href="#DejaVuSans-66" transform="translate(168.212891 0.015625)"/>
      <use xlink:href="#DejaVuSans-74" transform="translate(203.417969 0.015625)"/>
      <use xlink:href="#DejaVuSans-65" transform="translate(242.626953 0.015625)"/>
      <use xlink:href="#DejaVuSans-72" transform="translate(304.150391 0.015625)"/>
      <use xlink:href="#DejaVuSans-20" transform="translate(345.263672 0.015625)"/>
      <use xlink:href="#DejaVuSans-Oblique-46" transform="translate(377.050781 0.015625)"/>
      <use xlink:href="#DejaVuSans-20" transform="translate(434.570312 0.015625)"/>
      <use xlink:href="#DejaVuSans-28" transform="translate(466.357422 0.015625)"/>
      <use xlink:href="#DejaVuSans-4e" transform="translate(505.371094 0.015625)"/>
      <use xlink:href="#DejaVuSans-65" transform="translate(580.175781 0.015625)"/>
      <use xlink:href="#DejaVuSans-77" transform="translate(641.699219 0.015625)"/>
      <use xlink:href="#DejaVuSans-74" transform="translate(723.486328 0.015625)"/>
      <use xlink:href="#DejaVuSans-6f" transform="translate(762.695312 0.015625)"/>
      <use xlink:href="#DejaVuSans-6e" transform="translate(823.876953 0.015625)"/>
      <use xlink:href="#DejaVuSans-29" transform="translate(887.255859 0.015625)"/>
     </g>
    </g>
   </g>
   <g id="line2d_6">
    <path d="M 57.538622 286.678095 
L 61.367386 286.650507 
L 65.19615 286.567744 
L 69.024913 286.429805 
L 72.853677 286.23669 
L 76.682441 285.9884 
L 80.511205 285.684934 
L 84.339969 285.326293 
L 88.168732 284.912475 
L 91.997496 284.443483 
L 95.82626 283.919314 
L 99.655024 283.33997 
L 103.483787 282.705451 
L 107.312551 282.015755 
L 111.141315 281.270885 
L 114.970079 280.470838 
L 118.798843 279.615616 
L 122.627606 278.705218 
L 126.45637 277.739645 
L 130.285134 276.718896 
L 134.113898 275.642971 
L 137.942661 274.511871 
L 141.771425 273.325595 
L 145.600189 272.084144 
L 149.428953 270.787517 
L 153.257717 269.435714 
L 157.08648 268.028736 
L 160.915244 266.566582 
L 164.744008 265.049253 
L 168.572772 263.476747 
L 172.401535 261.849067 
L 176.230299 260.16621 
L 180.059063 258.428178 
L 183.887827 256.634971 
L 187.716591 254.786587 
L 191.545354 252.883029 
L 195.374118 250.924294 
L 199.202882 248.910384 
L 203.031646 246.841298 
L 206.860409 244.717037 
L 210.689173 242.5376 
L 214.517937 240.302987 
L 218.346701 238.013199 
L 222.175465 235.668235 
L 226.004228 233.268096 
L 229.832992 230.812781 
L 233.661756 228.30229 
L 237.49052 225.736624 
L 241.319283 223.115782 
L 245.148047 220.439765 
L 248.976811 217.708571 
L 252.805575 214.922203 
L 256.634339 212.080658 
L 260.463102 209.183938 
L 264.291866 206.232043 
L 268.12063 203.224971 
L 271.949394 200.162725 
L 275.778157 197.045302 
L 279.606921 193.872704 
L 283.435685 190.64493 
L 287.264449 187.361981 
L 291.093213 184.023856 
L 294.921976 180.630555 
L 298.75074 177.182079 
L 302.579504 173.678427 
L 306.408268 170.1196 
L 310.237032 166.505597 
L 314.065795 162.836418 
L 317.894559 159.112064 
L 321.723323 155.332534 
L 325.552087 151.497829 
L 329.38085 147.607947 
L 333.209614 143.662891 
L 337.038378 139.662658 
L 340.867142 135.60725 
L 344.695906 131.496667 
L 348.524669 127.330907 
L 352.353433 123.109973 
L 356.182197 118.833862 
L 360.010961 114.502576 
L 363.839724 110.116114 
L 367.668488 105.674477 
L 371.497252 101.177664 
L 375.326016 96.625675 
L 379.15478 92.018511 
L 382.983543 87.356171 
L 386.812307 82.638656 
L 390.641071 77.865965 
L 394.469835 73.038098 
L 398.298598 68.155056 
L 402.127362 63.216838 
L 405.956126 58.223445 
L 409.78489 53.174875 
L 413.613654 48.071131 
L 417.442417 42.91221 
L 421.271181 37.698114 
L 425.099945 32.428843 
L 428.928709 27.104395 
L 432.757472 21.724773 
L 436.586236 16.289974 
L 440.415 10.8 
" clip-path="url(#pe13d4e4ef0)" style="fill: none; stroke: #1f77b4; stroke-width: 1.5; stroke-linecap: square"/>
   </g>
   <g id="line2d_7">
    <path d="M 57.538622 204.310492 
L 61.367386 204.310492 
L 65.19615 204.310492 
L 69.024913 204.310492 
L 72.853677 204.310492 
L 76.682441 204.310492 
L 80.511205 204.310492 
L 84.339969 204.310492 
L 88.168732 204.310492 
L 91.997496 204.310492 
L 95.82626 204.310492 
L 99.655024 204.310492 
L 103.483787 204.310492 
L 107.312551 204.310492 
L 111.141315 204.310492 
L 114.970079 204.310492 
L 118.798843 204.310492 
L 122.627606 204.310492 
L 126.45637 204.310492 
L 130.285134 204.310492 
L 134.113898 204.310492 
L 137.942661 204.310492 
L 141.771425 204.310492 
L 145.600189 204.310492 
L 149.428953 204.310492 
L 153.257717 204.310492 
L 157.08648 204.310492 
L 160.915244 204.310492 
L 164.744008 204.310492 
L 168.572772 204.310492 
L 172.401535 204.310492 
L 176.230299 204.310492 
L 180.059063 204.310492 
L 183.887827 204.310492 
L 187.716591 204.310492 
L 191.545354 204.310492 
L 195.374118 204.310492 
L 199.202882 204.310492 
L 203.031646 204.310492 
L 206.860409 204.310492 
L 210.689173 204.310492 
L 214.517937 204.310492 
L 218.346701 204.310492 
L 222.175465 204.310492 
L 226.004228 204.310492 
L 229.832992 204.310492 
L 233.661756 204.310492 
L 237.49052 204.310492 
L 241.319283 204.310492 
L 245.148047 204.310492 
L 248.976811 204.310492 
L 252.805575 204.310492 
L 256.634339 204.310492 
L 260.463102 204.310492 
L 264.291866 204.310492 
L 268.12063 204.310492 
L 271.949394 204.310492 
L 275.778157 204.310492 
L 279.606921 204.310492 
L 283.435685 204.310492 
L 287.264449 204.310492 
L 291.093213 204.310492 
L 294.921976 204.310492 
L 298.75074 204.310492 
L 302.579504 204.310492 
L 306.408268 204.310492 
L 310.237032 204.310492 
L 314.065795 204.310492 
L 317.894559 204.310492 
L 321.723323 204.310492 
L 325.552087 204.310492 
L 329.38085 204.310492 
L 333.209614 204.310492 
L 337.038378 204.310492 
L 340.867142 204.310492 
L 344.695906 204.310492 
L 348.524669 204.310492 
L 352.353433 204.310492 
L 356.182197 204.310492 
L 360.010961 204.310492 
L 363.839724 204.310492 
L 367.668488 204.310492 
L 371.497252 204.310492 
L 375.326016 204.310492 
L 379.15478 204.310492 
L 382.983543 204.310492 
L 386.812307 204.310492 
L 390.641071 204.310492 
L 394.469835 204.310492 
L 398.298598 204.310492 
L 402.127362 204.310492 
L 405.956126 204.310492 
L 409.78489 204.310492 
L 413.613654 204.310492 
L 417.442417 204.310492 
L 421.271181 204.310492 
L 425.099945 204.310492 
L 428.928709 204.310492 
L 432.757472 204.310492 
L 436.586236 204.310492 
L 440.415 204.310492 
" clip-path="url(#pe13d4e4ef0)" style="fill: none; stroke: #2ca02c; stroke-width: 1.5; stroke-linecap: square"/>
   </g>
   <g id="line2d_8">
    <path d="M 57.538622 286.678095 
L 61.367386 286.678095 
L 65.19615 286.678095 
L 69.024913 286.678095 
L 72.853677 286.678095 
L 76.682441 286.678095 
L 80.511205 286.678095 
L 84.339969 286.678095 
L 88.168732 286.678095 
L 91.997496 286.678095 
L 95.82626 286.678095 
L 99.655024 286.678095 
L 103.483787 286.678095 
L 107.312551 286.678095 
L 111.141315 286.678095 
L 114.970079 286.678095 
L 118.798843 286.678095 
L 122.627606 286.678095 
L 126.45637 286.678095 
L 130.285134 286.678095 
L 134.113898 286.678095 
L 137.942661 286.678095 
L 141.771425 286.678095 
L 145.600189 286.678095 
L 149.428953 286.678095 
L 153.257717 286.678095 
L 157.08648 286.678095 
L 160.915244 286.678095 
L 164.744008 286.678095 
L 168.572772 286.678095 
L 172.401535 286.678095 
L 176.230299 286.678095 
L 180.059063 286.678095 
L 183.887827 286.678095 
L 187.716591 286.678095 
L 191.545354 286.678095 
L 195.374118 286.678095 
L 199.202882 286.678095 
L 203.031646 286.678095 
L 206.860409 286.678095 
L 210.689173 286.678095 
L 214.517937 286.678095 
L 218.346701 286.678095 
L 222.175465 286.678095 
L 226.004228 286.678095 
L 229.832992 286.678095 
L 233.661756 286.678095 
L 237.49052 286.678095 
L 241.319283 286.678095 
L 245.148047 286.678095 
L 248.976811 286.678095 
L 252.805575 286.678095 
L 256.634339 286.678095 
L 260.463102 286.678095 
L 264.291866 286.678095 
L 268.12063 286.678095 
L 271.949394 286.678095 
L 275.778157 286.678095 
L 279.606921 286.678095 
L 283.435685 286.678095 
L 287.264449 286.678095 
L 291.093213 286.678095 
L 294.921976 286.678095 
L 298.75074 286.678095 
L 302.579504 286.678095 
L 306.408268 286.678095 
L 310.237032 286.678095 
L 314.065795 286.678095 
L 317.894559 286.678095 
L 321.723323 286.678095 
L 325.552087 286.678095 
L 329.38085 286.678095 
L 333.209614 286.678095 
L 337.038378 286.678095 
L 340.867142 286.678095 
L 344.695906 286.678095 
L 348.524669 286.678095 
L 352.353433 286.678095 
L 356.182197 286.678095 
L 360.010961 286.678095 
L 363.839724 286.678095 
L 367.668488 286.678095 
L 371.497252 286.678095 
L 375.326016 286.678095 
L 379.15478 286.678095 
L 382.983543 286.678095 
L 386.812307 286.678095 
L 390.641071 286.678095 
L 394.469835 286.678095 
L 398.298598 286.678095 
L 402.127362 286.678095 
L 405.956126 286.678095 
L 409.78489 286.678095 
L 413.613654 286.678095 
L 417.442417 286.678095 
L 421.271181 286.678095 
L 425.099945 286.678095 
L 428.928709 286.678095 
L 432.757472 286.678095 
L 436.586236 286.678095 
L 440.415 286.678095 
" clip-path="url(#pe13d4e4ef0)" style="fill: none; stroke: #000000; stroke-width: 0.5; stroke-linecap: square"/>
   </g>
   <g id="patch_3">
    <path d="M 57.538622 300.472 
L 57.538622 10.8 
" style="fill: none; stroke: #000000; stroke-width: 0.8; stroke-linejoin: miter; stroke-linecap: square"/>
   </g>
   <g id="patch_4">
    <path d="M 440.415 300.472 
L 440.415 10.8 
" style="fill: none; stroke: #000000; stroke-width: 0.8; stroke-linejoin: miter; stroke-linecap: square"/>
   </g>
   <g id="patch_5">
    <path d="M 57.538622 300.472 
L 440.415 300.472 
" style="fill: none; stroke: #000000; stroke-width: 0.8; stroke-linejoin: miter; stroke-linecap: square"/>
   </g>
   <g id="patch_6">
    <path d="M 57.538622 10.8 
L 440.415 10.8 
" style="fill: none; stroke: #000000; stroke-width: 0.8; stroke-linejoin: miter; stroke-linecap: square"/>
   </g>
   <g id="legend_1">
    <g id="patch_7">
     <path d="M 64.538622 48.15625 
L 163.26206 48.15625 
Q 165.26206 48.15625 165.26206 46.15625 
L 165.26206 17.8 
Q 165.26206 15.8 163.26206 15.8 
L 64.538622 15.8 
Q 62.538622 15.8 62.538622 17.8 
L 62.538622 46.15625 
Q 62.538622 48.15625 64.538622 48.15625 
z
" style="fill: #ffffff; opacity: 0.8; stroke: #cccccc; stroke-linejoin: miter"/>
    </g>
    <g id="line2d_9">
     <path d="M 66.538622 23.898438 
L 76.538622 23.898438 
L 86.538622 23.898438 
" style="fill: none; stroke: #1f77b4; stroke-width: 1.5; stroke-linecap: square"/>
    </g>
    <g id="text_8">
     <!-- Luftmotstand -->
     <g transform="translate(94.538622 27.398438) scale(0.1 -0.1)">
      <defs>
       <path id="DejaVuSans-4c" d="M 628 4666 
L 1259 4666 
L 1259 531 
L 3531 531 
L 3531 0 
L 628 0 
L 628 4666 
z
" transform="scale(0.015625)"/>
       <path id="DejaVuSans-75" d="M 544 1381 
L 544 3500 
L 1119 3500 
L 1119 1403 
Q 1119 906 1312 657 
Q 1506 409 1894 409 
Q 2359 409 2629 706 
Q 2900 1003 2900 1516 
L 2900 3500 
L 3475 3500 
L 3475 0 
L 2900 0 
L 2900 538 
Q 2691 219 2414 64 
Q 2138 -91 1772 -91 
Q 1169 -91 856 284 
Q 544 659 544 1381 
z
M 1991 3584 
L 1991 3584 
z
" transform="scale(0.015625)"/>
       <path id="DejaVuSans-64" d="M 2906 2969 
L 2906 4863 
L 3481 4863 
L 3481 0 
L 2906 0 
L 2906 525 
Q 2725 213 2448 61 
Q 2172 -91 1784 -91 
Q 1150 -91 751 415 
Q 353 922 353 1747 
Q 353 2572 751 3078 
Q 1150 3584 1784 3584 
Q 2172 3584 2448 3432 
Q 2725 3281 2906 2969 
z
M 947 1747 
Q 947 1113 1208 752 
Q 1469 391 1925 391 
Q 2381 391 2643 752 
Q 2906 1113 2906 1747 
Q 2906 2381 2643 2742 
Q 2381 3103 1925 3103 
Q 1469 3103 1208 2742 
Q 947 2381 947 1747 
z
" transform="scale(0.015625)"/>
      </defs>
      <use xlink:href="#DejaVuSans-4c"/>
      <use xlink:href="#DejaVuSans-75" transform="translate(53.962891 0)"/>
      <use xlink:href="#DejaVuSans-66" transform="translate(117.341797 0)"/>
      <use xlink:href="#DejaVuSans-74" transform="translate(150.796875 0)"/>
      <use xlink:href="#DejaVuSans-6d" transform="translate(190.005859 0)"/>
      <use xlink:href="#DejaVuSans-6f" transform="translate(287.417969 0)"/>
      <use xlink:href="#DejaVuSans-74" transform="translate(348.599609 0)"/>
      <use xlink:href="#DejaVuSans-73" transform="translate(387.808594 0)"/>
      <use xlink:href="#DejaVuSans-74" transform="translate(439.908203 0)"/>
      <use xlink:href="#DejaVuSans-61" transform="translate(479.117188 0)"/>
      <use xlink:href="#DejaVuSans-6e" transform="translate(540.396484 0)"/>
      <use xlink:href="#DejaVuSans-64" transform="translate(603.775391 0)"/>
     </g>
    </g>
    <g id="line2d_10">
     <path d="M 66.538622 38.576563 
L 76.538622 38.576563 
L 86.538622 38.576563 
" style="fill: none; stroke: #2ca02c; stroke-width: 1.5; stroke-linecap: square"/>
    </g>
    <g id="text_9">
     <!-- Tyngdekraft -->
     <g transform="translate(94.538622 42.076563) scale(0.1 -0.1)">
      <defs>
       <path id="DejaVuSans-54" d="M -19 4666 
L 3928 4666 
L 3928 4134 
L 2272 4134 
L 2272 0 
L 1638 0 
L 1638 4134 
L -19 4134 
L -19 4666 
z
" transform="scale(0.015625)"/>
       <path id="DejaVuSans-79" d="M 2059 -325 
Q 1816 -950 1584 -1140 
Q 1353 -1331 966 -1331 
L 506 -1331 
L 506 -850 
L 844 -850 
Q 1081 -850 1212 -737 
Q 1344 -625 1503 -206 
L 1606 56 
L 191 3500 
L 800 3500 
L 1894 763 
L 2988 3500 
L 3597 3500 
L 2059 -325 
z
" transform="scale(0.015625)"/>
       <path id="DejaVuSans-6b" d="M 581 4863 
L 1159 4863 
L 1159 1991 
L 2875 3500 
L 3609 3500 
L 1753 1863 
L 3688 0 
L 2938 0 
L 1159 1709 
L 1159 0 
L 581 0 
L 581 4863 
z
" transform="scale(0.015625)"/>
      </defs>
      <use xlink:href="#DejaVuSans-54"/>
      <use xlink:href="#DejaVuSans-79" transform="translate(45.458984 0)"/>
      <use xlink:href="#DejaVuSans-6e" transform="translate(104.638672 0)"/>
      <use xlink:href="#DejaVuSans-67" transform="translate(168.017578 0)"/>
      <use xlink:href="#DejaVuSans-64" transform="translate(231.494141 0)"/>
      <use xlink:href="#DejaVuSans-65" transform="translate(294.970703 0)"/>
      <use xlink:href="#DejaVuSans-6b" transform="translate(356.494141 0)"/>
      <use xlink:href="#DejaVuSans-72" transform="translate(414.404297 0)"/>
      <use xlink:href="#DejaVuSans-61" transform="translate(455.517578 0)"/>
      <use xlink:href="#DejaVuSans-66" transform="translate(516.796875 0)"/>
      <use xlink:href="#DejaVuSans-74" transform="translate(550.251953 0)"/>
     </g>
    </g>
   </g>
  </g>
 </g>
 <defs>
  <clipPath id="pe13d4e4ef0">
   <rect x="57.538622" y="10.8" width="382.876378" height="289.672"/>
  </clipPath>
 </defs>
</svg>
