<?xml version="1.0" encoding="utf-8" standalone="no"?>
<!DOCTYPE svg PUBLIC "-//W3C//DTD SVG 1.1//EN"
  "http://www.w3.org/Graphics/SVG/1.1/DTD/svg11.dtd">
<svg xmlns:xlink="http://www.w3.org/1999/xlink" width="460.8pt" height="345.6pt" viewBox="0 0 460.8 345.6" xmlns="http://www.w3.org/2000/svg" version="1.1">
 <metadata>
  <rdf:RDF xmlns:dc="http://purl.org/dc/elements/1.1/" xmlns:cc="http://creativecommons.org/ns#" xmlns:rdf="http://www.w3.org/1999/02/22-rdf-syntax-ns#">
   <cc:Work>
    <dc:type rdf:resource="http://purl.org/dc/dcmitype/StillImage"/>
    <dc:date>2025-04-06T20:32:22.621197</dc:date>
    <dc:format>image/svg+xml</dc:format>
    <dc:creator>
     <cc:Agent>
      <dc:title>Matplotlib v3.8.3, https://matplotlib.org/</dc:title>
     </cc:Agent>
    </dc:creator>
   </cc:Work>
  </rdf:RDF>
 </metadata>
 <defs>
  <style type="text/css">*{stroke-linejoin: round; stroke-linecap: butt}</style>
 </defs>
 <g id="figure_1">
  <g id="patch_1">
   <path d="M 0 345.6 
L 460.8 345.6 
L 460.8 0 
L 0 0 
z
" style="fill: #ffffff"/>
  </g>
  <g id="axes_1">
   <g id="patch_2">
    <path d="M 57.51084 300.472 
L 440.505 300.472 
L 440.505 10.8 
L 57.51084 10.8 
z
" style="fill: #ffffff"/>
   </g>
   <g id="matplotlib.axis_1">
    <g id="xtick_1">
     <g id="line2d_1">
      <defs>
       <path id="mf4bccbb8c3" d="M 0 0 
L 0 3.5 
" style="stroke: #000000; stroke-width: 0.8"/>
      </defs>
      <g>
       <use xlink:href="#mf4bccbb8c3" x="57.51084" y="300.472" style="stroke: #000000; stroke-width: 0.8"/>
      </g>
     </g>
     <g id="text_1">
      <!-- 0 -->
      <g transform="translate(54.32959 315.070437) scale(0.1 -0.1)">
       <defs>
        <path id="DejaVuSans-30" d="M 2034 4250 
Q 1547 4250 1301 3770 
Q 1056 3291 1056 2328 
Q 1056 1369 1301 889 
Q 1547 409 2034 409 
Q 2525 409 2770 889 
Q 3016 1369 3016 2328 
Q 3016 3291 2770 3770 
Q 2525 4250 2034 4250 
z
M 2034 4750 
Q 2819 4750 3233 4129 
Q 3647 3509 3647 2328 
Q 3647 1150 3233 529 
Q 2819 -91 2034 -91 
Q 1250 -91 836 529 
Q 422 1150 422 2328 
Q 422 3509 836 4129 
Q 1250 4750 2034 4750 
z
" transform="scale(0.015625)"/>
       </defs>
       <use xlink:href="#DejaVuSans-30"/>
      </g>
     </g>
    </g>
    <g id="xtick_2">
     <g id="line2d_2">
      <g>
       <use xlink:href="#mf4bccbb8c3" x="268.161462" y="300.472" style="stroke: #000000; stroke-width: 0.8"/>
      </g>
     </g>
     <g id="text_2">
      <!-- $v_{\text{term}}$ -->
      <g transform="translate(256.661462 315.070437) scale(0.1 -0.1)">
       <defs>
        <path id="DejaVuSans-Oblique-76" d="M 459 3500 
L 1069 3500 
L 1581 525 
L 3256 3500 
L 3866 3500 
L 1875 0 
L 1100 0 
L 459 3500 
z
" transform="scale(0.015625)"/>
        <path id="DejaVuSans-74" d="M 1172 4494 
L 1172 3500 
L 2356 3500 
L 2356 3053 
L 1172 3053 
L 1172 1153 
Q 1172 725 1289 603 
Q 1406 481 1766 481 
L 2356 481 
L 2356 0 
L 1766 0 
Q 1100 0 847 248 
Q 594 497 594 1153 
L 594 3053 
L 172 3053 
L 172 3500 
L 594 3500 
L 594 4494 
L 1172 4494 
z
" transform="scale(0.015625)"/>
        <path id="DejaVuSans-65" d="M 3597 1894 
L 3597 1613 
L 953 1613 
Q 991 1019 1311 708 
Q 1631 397 2203 397 
Q 2534 397 2845 478 
Q 3156 559 3463 722 
L 3463 178 
Q 3153 47 2828 -22 
Q 2503 -91 2169 -91 
Q 1331 -91 842 396 
Q 353 884 353 1716 
Q 353 2575 817 3079 
Q 1281 3584 2069 3584 
Q 2775 3584 3186 3129 
Q 3597 2675 3597 1894 
z
M 3022 2063 
Q 3016 2534 2758 2815 
Q 2500 3097 2075 3097 
Q 1594 3097 1305 2825 
Q 1016 2553 972 2059 
L 3022 2063 
z
" transform="scale(0.015625)"/>
        <path id="DejaVuSans-72" d="M 2631 2963 
Q 2534 3019 2420 3045 
Q 2306 3072 2169 3072 
Q 1681 3072 1420 2755 
Q 1159 2438 1159 1844 
L 1159 0 
L 581 0 
L 581 3500 
L 1159 3500 
L 1159 2956 
Q 1341 3275 1631 3429 
Q 1922 3584 2338 3584 
Q 2397 3584 2469 3576 
Q 2541 3569 2628 3553 
L 2631 2963 
z
" transform="scale(0.015625)"/>
        <path id="DejaVuSans-6d" d="M 3328 2828 
Q 3544 3216 3844 3400 
Q 4144 3584 4550 3584 
Q 5097 3584 5394 3201 
Q 5691 2819 5691 2113 
L 5691 0 
L 5113 0 
L 5113 2094 
Q 5113 2597 4934 2840 
Q 4756 3084 4391 3084 
Q 3944 3084 3684 2787 
Q 3425 2491 3425 1978 
L 3425 0 
L 2847 0 
L 2847 2094 
Q 2847 2600 2669 2842 
Q 2491 3084 2119 3084 
Q 1678 3084 1418 2786 
Q 1159 2488 1159 1978 
L 1159 0 
L 581 0 
L 581 3500 
L 1159 3500 
L 1159 2956 
Q 1356 3278 1631 3431 
Q 1906 3584 2284 3584 
Q 2666 3584 2933 3390 
Q 3200 3197 3328 2828 
z
" transform="scale(0.015625)"/>
       </defs>
       <use xlink:href="#DejaVuSans-Oblique-76" transform="translate(0 0.3125)"/>
       <use xlink:href="#DejaVuSans-74" transform="translate(59.179688 -16.09375) scale(0.7)"/>
       <use xlink:href="#DejaVuSans-65" transform="translate(86.625977 -16.09375) scale(0.7)"/>
       <use xlink:href="#DejaVuSans-72" transform="translate(129.692383 -16.09375) scale(0.7)"/>
       <use xlink:href="#DejaVuSans-6d" transform="translate(158.47168 -16.09375) scale(0.7)"/>
      </g>
     </g>
    </g>
    <g id="xtick_3">
     <g id="line2d_3">
      <g>
       <use xlink:href="#mf4bccbb8c3" x="440.505" y="300.472" style="stroke: #000000; stroke-width: 0.8"/>
      </g>
     </g>
     <g id="text_3">
      <!-- 100 -->
      <g transform="translate(430.96125 315.070437) scale(0.1 -0.1)">
       <defs>
        <path id="DejaVuSans-31" d="M 794 531 
L 1825 531 
L 1825 4091 
L 703 3866 
L 703 4441 
L 1819 4666 
L 2450 4666 
L 2450 531 
L 3481 531 
L 3481 0 
L 794 0 
L 794 531 
z
" transform="scale(0.015625)"/>
       </defs>
       <use xlink:href="#DejaVuSans-31"/>
       <use xlink:href="#DejaVuSans-30" x="63.623047"/>
       <use xlink:href="#DejaVuSans-30" x="127.246094"/>
      </g>
     </g>
    </g>
    <g id="text_4">
     <!-- Hastighet $v$ (m/s) -->
     <g transform="translate(205.60792 328.750125) scale(0.1 -0.1)">
      <defs>
       <path id="DejaVuSans-48" d="M 628 4666 
L 1259 4666 
L 1259 2753 
L 3553 2753 
L 3553 4666 
L 4184 4666 
L 4184 0 
L 3553 0 
L 3553 2222 
L 1259 2222 
L 1259 0 
L 628 0 
L 628 4666 
z
" transform="scale(0.015625)"/>
       <path id="DejaVuSans-61" d="M 2194 1759 
Q 1497 1759 1228 1600 
Q 959 1441 959 1056 
Q 959 750 1161 570 
Q 1363 391 1709 391 
Q 2188 391 2477 730 
Q 2766 1069 2766 1631 
L 2766 1759 
L 2194 1759 
z
M 3341 1997 
L 3341 0 
L 2766 0 
L 2766 531 
Q 2569 213 2275 61 
Q 1981 -91 1556 -91 
Q 1019 -91 701 211 
Q 384 513 384 1019 
Q 384 1609 779 1909 
Q 1175 2209 1959 2209 
L 2766 2209 
L 2766 2266 
Q 2766 2663 2505 2880 
Q 2244 3097 1772 3097 
Q 1472 3097 1187 3025 
Q 903 2953 641 2809 
L 641 3341 
Q 956 3463 1253 3523 
Q 1550 3584 1831 3584 
Q 2591 3584 2966 3190 
Q 3341 2797 3341 1997 
z
" transform="scale(0.015625)"/>
       <path id="DejaVuSans-73" d="M 2834 3397 
L 2834 2853 
Q 2591 2978 2328 3040 
Q 2066 3103 1784 3103 
Q 1356 3103 1142 2972 
Q 928 2841 928 2578 
Q 928 2378 1081 2264 
Q 1234 2150 1697 2047 
L 1894 2003 
Q 2506 1872 2764 1633 
Q 3022 1394 3022 966 
Q 3022 478 2636 193 
Q 2250 -91 1575 -91 
Q 1294 -91 989 -36 
Q 684 19 347 128 
L 347 722 
Q 666 556 975 473 
Q 1284 391 1588 391 
Q 1994 391 2212 530 
Q 2431 669 2431 922 
Q 2431 1156 2273 1281 
Q 2116 1406 1581 1522 
L 1381 1569 
Q 847 1681 609 1914 
Q 372 2147 372 2553 
Q 372 3047 722 3315 
Q 1072 3584 1716 3584 
Q 2034 3584 2315 3537 
Q 2597 3491 2834 3397 
z
" transform="scale(0.015625)"/>
       <path id="DejaVuSans-69" d="M 603 3500 
L 1178 3500 
L 1178 0 
L 603 0 
L 603 3500 
z
M 603 4863 
L 1178 4863 
L 1178 4134 
L 603 4134 
L 603 4863 
z
" transform="scale(0.015625)"/>
       <path id="DejaVuSans-67" d="M 2906 1791 
Q 2906 2416 2648 2759 
Q 2391 3103 1925 3103 
Q 1463 3103 1205 2759 
Q 947 2416 947 1791 
Q 947 1169 1205 825 
Q 1463 481 1925 481 
Q 2391 481 2648 825 
Q 2906 1169 2906 1791 
z
M 3481 434 
Q 3481 -459 3084 -895 
Q 2688 -1331 1869 -1331 
Q 1566 -1331 1297 -1286 
Q 1028 -1241 775 -1147 
L 775 -588 
Q 1028 -725 1275 -790 
Q 1522 -856 1778 -856 
Q 2344 -856 2625 -561 
Q 2906 -266 2906 331 
L 2906 616 
Q 2728 306 2450 153 
Q 2172 0 1784 0 
Q 1141 0 747 490 
Q 353 981 353 1791 
Q 353 2603 747 3093 
Q 1141 3584 1784 3584 
Q 2172 3584 2450 3431 
Q 2728 3278 2906 2969 
L 2906 3500 
L 3481 3500 
L 3481 434 
z
" transform="scale(0.015625)"/>
       <path id="DejaVuSans-68" d="M 3513 2113 
L 3513 0 
L 2938 0 
L 2938 2094 
Q 2938 2591 2744 2837 
Q 2550 3084 2163 3084 
Q 1697 3084 1428 2787 
Q 1159 2491 1159 1978 
L 1159 0 
L 581 0 
L 581 4863 
L 1159 4863 
L 1159 2956 
Q 1366 3272 1645 3428 
Q 1925 3584 2291 3584 
Q 2894 3584 3203 3211 
Q 3513 2838 3513 2113 
z
" transform="scale(0.015625)"/>
       <path id="DejaVuSans-20" transform="scale(0.015625)"/>
       <path id="DejaVuSans-28" d="M 1984 4856 
Q 1566 4138 1362 3434 
Q 1159 2731 1159 2009 
Q 1159 1288 1364 580 
Q 1569 -128 1984 -844 
L 1484 -844 
Q 1016 -109 783 600 
Q 550 1309 550 2009 
Q 550 2706 781 3412 
Q 1013 4119 1484 4856 
L 1984 4856 
z
" transform="scale(0.015625)"/>
       <path id="DejaVuSans-2f" d="M 1625 4666 
L 2156 4666 
L 531 -594 
L 0 -594 
L 1625 4666 
z
" transform="scale(0.015625)"/>
       <path id="DejaVuSans-29" d="M 513 4856 
L 1013 4856 
Q 1481 4119 1714 3412 
Q 1947 2706 1947 2009 
Q 1947 1309 1714 600 
Q 1481 -109 1013 -844 
L 513 -844 
Q 928 -128 1133 580 
Q 1338 1288 1338 2009 
Q 1338 2731 1133 3434 
Q 928 4138 513 4856 
z
" transform="scale(0.015625)"/>
      </defs>
      <use xlink:href="#DejaVuSans-48" transform="translate(0 0.015625)"/>
      <use xlink:href="#DejaVuSans-61" transform="translate(75.195312 0.015625)"/>
      <use xlink:href="#DejaVuSans-73" transform="translate(136.474609 0.015625)"/>
      <use xlink:href="#DejaVuSans-74" transform="translate(188.574219 0.015625)"/>
      <use xlink:href="#DejaVuSans-69" transform="translate(227.783203 0.015625)"/>
      <use xlink:href="#DejaVuSans-67" transform="translate(255.566406 0.015625)"/>
      <use xlink:href="#DejaVuSans-68" transform="translate(319.042969 0.015625)"/>
      <use xlink:href="#DejaVuSans-65" transform="translate(382.421875 0.015625)"/>
      <use xlink:href="#DejaVuSans-74" transform="translate(443.945312 0.015625)"/>
      <use xlink:href="#DejaVuSans-20" transform="translate(483.154297 0.015625)"/>
      <use xlink:href="#DejaVuSans-Oblique-76" transform="translate(514.941406 0.015625)"/>
      <use xlink:href="#DejaVuSans-20" transform="translate(574.121094 0.015625)"/>
      <use xlink:href="#DejaVuSans-28" transform="translate(605.908203 0.015625)"/>
      <use xlink:href="#DejaVuSans-6d" transform="translate(644.921875 0.015625)"/>
      <use xlink:href="#DejaVuSans-2f" transform="translate(742.333984 0.015625)"/>
      <use xlink:href="#DejaVuSans-73" transform="translate(776.025391 0.015625)"/>
      <use xlink:href="#DejaVuSans-29" transform="translate(828.125 0.015625)"/>
     </g>
    </g>
   </g>
   <g id="matplotlib.axis_2">
    <g id="ytick_1">
     <g id="line2d_4">
      <defs>
       <path id="m4ba88cff6b" d="M 0 0 
L -3.5 0 
" style="stroke: #000000; stroke-width: 0.8"/>
      </defs>
      <g>
       <use xlink:href="#m4ba88cff6b" x="57.51084" y="286.678095" style="stroke: #000000; stroke-width: 0.8"/>
      </g>
     </g>
     <g id="text_5">
      <!-- 0.0 -->
      <g transform="translate(34.607715 290.477314) scale(0.1 -0.1)">
       <defs>
        <path id="DejaVuSans-2e" d="M 684 794 
L 1344 794 
L 1344 0 
L 684 0 
L 684 794 
z
" transform="scale(0.015625)"/>
       </defs>
       <use xlink:href="#DejaVuSans-30"/>
       <use xlink:href="#DejaVuSans-2e" x="63.623047"/>
       <use xlink:href="#DejaVuSans-30" x="95.410156"/>
      </g>
     </g>
    </g>
    <g id="ytick_2">
     <g id="line2d_5">
      <g>
       <use xlink:href="#m4ba88cff6b" x="57.51084" y="203.221933" style="stroke: #000000; stroke-width: 0.8"/>
      </g>
     </g>
     <g id="text_6">
      <!-- $m\cdot g$ -->
      <g transform="translate(27.31084 207.010996) scale(0.1 -0.1)">
       <defs>
        <path id="DejaVuSans-Oblique-6d" d="M 5747 2113 
L 5338 0 
L 4763 0 
L 5166 2094 
Q 5191 2228 5203 2325 
Q 5216 2422 5216 2491 
Q 5216 2772 5059 2928 
Q 4903 3084 4622 3084 
Q 4203 3084 3875 2770 
Q 3547 2456 3450 1953 
L 3066 0 
L 2491 0 
L 2900 2094 
Q 2925 2209 2937 2307 
Q 2950 2406 2950 2484 
Q 2950 2769 2794 2926 
Q 2638 3084 2363 3084 
Q 1938 3084 1609 2770 
Q 1281 2456 1184 1953 
L 800 0 
L 225 0 
L 909 3500 
L 1484 3500 
L 1375 2956 
Q 1609 3263 1923 3423 
Q 2238 3584 2597 3584 
Q 2978 3584 3223 3384 
Q 3469 3184 3519 2828 
Q 3781 3197 4126 3390 
Q 4472 3584 4856 3584 
Q 5306 3584 5551 3325 
Q 5797 3066 5797 2591 
Q 5797 2488 5784 2364 
Q 5772 2241 5747 2113 
z
" transform="scale(0.015625)"/>
        <path id="DejaVuSans-22c5" d="M 684 2619 
L 1344 2619 
L 1344 1825 
L 684 1825 
L 684 2619 
z
" transform="scale(0.015625)"/>
        <path id="DejaVuSans-Oblique-67" d="M 3816 3500 
L 3219 434 
Q 3047 -456 2561 -893 
Q 2075 -1331 1253 -1331 
Q 950 -1331 690 -1286 
Q 431 -1241 206 -1147 
L 313 -588 
Q 525 -725 762 -790 
Q 1000 -856 1269 -856 
Q 1816 -856 2167 -557 
Q 2519 -259 2631 300 
L 2681 563 
Q 2441 288 2122 144 
Q 1803 0 1434 0 
Q 903 0 598 351 
Q 294 703 294 1319 
Q 294 1803 478 2267 
Q 663 2731 997 3091 
Q 1219 3328 1514 3456 
Q 1809 3584 2131 3584 
Q 2484 3584 2746 3420 
Q 3009 3256 3138 2956 
L 3238 3500 
L 3816 3500 
z
M 2950 2216 
Q 2950 2641 2750 2872 
Q 2550 3103 2181 3103 
Q 1953 3103 1747 3012 
Q 1541 2922 1394 2759 
Q 1156 2491 1023 2127 
Q 891 1763 891 1375 
Q 891 944 1092 712 
Q 1294 481 1672 481 
Q 2219 481 2584 976 
Q 2950 1472 2950 2216 
z
" transform="scale(0.015625)"/>
       </defs>
       <use xlink:href="#DejaVuSans-Oblique-6d"/>
       <use xlink:href="#DejaVuSans-22c5" transform="translate(116.894531 0)"/>
       <use xlink:href="#DejaVuSans-Oblique-67" transform="translate(168.164062 0)"/>
      </g>
     </g>
    </g>
    <g id="text_7">
     <!-- Krefter $F$ (Newton) -->
     <g transform="translate(21.231152 201.986) rotate(-90) scale(0.1 -0.1)">
      <defs>
       <path id="DejaVuSans-4b" d="M 628 4666 
L 1259 4666 
L 1259 2694 
L 3353 4666 
L 4166 4666 
L 1850 2491 
L 4331 0 
L 3500 0 
L 1259 2247 
L 1259 0 
L 628 0 
L 628 4666 
z
" transform="scale(0.015625)"/>
       <path id="DejaVuSans-66" d="M 2375 4863 
L 2375 4384 
L 1825 4384 
Q 1516 4384 1395 4259 
Q 1275 4134 1275 3809 
L 1275 3500 
L 2222 3500 
L 2222 3053 
L 1275 3053 
L 1275 0 
L 697 0 
L 697 3053 
L 147 3053 
L 147 3500 
L 697 3500 
L 697 3744 
Q 697 4328 969 4595 
Q 1241 4863 1831 4863 
L 2375 4863 
z
" transform="scale(0.015625)"/>
       <path id="DejaVuSans-Oblique-46" d="M 1081 4666 
L 3756 4666 
L 3653 4134 
L 1606 4134 
L 1338 2759 
L 3188 2759 
L 3084 2228 
L 1234 2228 
L 800 0 
L 172 0 
L 1081 4666 
z
" transform="scale(0.015625)"/>
       <path id="DejaVuSans-4e" d="M 628 4666 
L 1478 4666 
L 3547 763 
L 3547 4666 
L 4159 4666 
L 4159 0 
L 3309 0 
L 1241 3903 
L 1241 0 
L 628 0 
L 628 4666 
z
" transform="scale(0.015625)"/>
       <path id="DejaVuSans-77" d="M 269 3500 
L 844 3500 
L 1563 769 
L 2278 3500 
L 2956 3500 
L 3675 769 
L 4391 3500 
L 4966 3500 
L 4050 0 
L 3372 0 
L 2619 2869 
L 1863 0 
L 1184 0 
L 269 3500 
z
" transform="scale(0.015625)"/>
       <path id="DejaVuSans-6f" d="M 1959 3097 
Q 1497 3097 1228 2736 
Q 959 2375 959 1747 
Q 959 1119 1226 758 
Q 1494 397 1959 397 
Q 2419 397 2687 759 
Q 2956 1122 2956 1747 
Q 2956 2369 2687 2733 
Q 2419 3097 1959 3097 
z
M 1959 3584 
Q 2709 3584 3137 3096 
Q 3566 2609 3566 1747 
Q 3566 888 3137 398 
Q 2709 -91 1959 -91 
Q 1206 -91 779 398 
Q 353 888 353 1747 
Q 353 2609 779 3096 
Q 1206 3584 1959 3584 
z
" transform="scale(0.015625)"/>
       <path id="DejaVuSans-6e" d="M 3513 2113 
L 3513 0 
L 2938 0 
L 2938 2094 
Q 2938 2591 2744 2837 
Q 2550 3084 2163 3084 
Q 1697 3084 1428 2787 
Q 1159 2491 1159 1978 
L 1159 0 
L 581 0 
L 581 3500 
L 1159 3500 
L 1159 2956 
Q 1366 3272 1645 3428 
Q 1925 3584 2291 3584 
Q 2894 3584 3203 3211 
Q 3513 2838 3513 2113 
z
" transform="scale(0.015625)"/>
      </defs>
      <use xlink:href="#DejaVuSans-4b" transform="translate(0 0.015625)"/>
      <use xlink:href="#DejaVuSans-72" transform="translate(65.576172 0.015625)"/>
      <use xlink:href="#DejaVuSans-65" transform="translate(106.689453 0.015625)"/>
      <use xlink:href="#DejaVuSans-66" transform="translate(168.212891 0.015625)"/>
      <use xlink:href="#DejaVuSans-74" transform="translate(203.417969 0.015625)"/>
      <use xlink:href="#DejaVuSans-65" transform="translate(242.626953 0.015625)"/>
      <use xlink:href="#DejaVuSans-72" transform="translate(304.150391 0.015625)"/>
      <use xlink:href="#DejaVuSans-20" transform="translate(345.263672 0.015625)"/>
      <use xlink:href="#DejaVuSans-Oblique-46" transform="translate(377.050781 0.015625)"/>
      <use xlink:href="#DejaVuSans-20" transform="translate(434.570312 0.015625)"/>
      <use xlink:href="#DejaVuSans-28" transform="translate(466.357422 0.015625)"/>
      <use xlink:href="#DejaVuSans-4e" transform="translate(505.371094 0.015625)"/>
      <use xlink:href="#DejaVuSans-65" transform="translate(580.175781 0.015625)"/>
      <use xlink:href="#DejaVuSans-77" transform="translate(641.699219 0.015625)"/>
      <use xlink:href="#DejaVuSans-74" transform="translate(723.486328 0.015625)"/>
      <use xlink:href="#DejaVuSans-6f" transform="translate(762.695312 0.015625)"/>
      <use xlink:href="#DejaVuSans-6e" transform="translate(823.876953 0.015625)"/>
      <use xlink:href="#DejaVuSans-29" transform="translate(887.255859 0.015625)"/>
     </g>
    </g>
   </g>
   <g id="line2d_6">
    <path d="M 57.51084 286.678095 
L 61.340781 286.650507 
L 65.170723 286.567744 
L 69.000665 286.429805 
L 72.830606 286.23669 
L 76.660548 285.9884 
L 80.490489 285.684934 
L 84.320431 285.326293 
L 88.150373 284.912475 
L 91.980314 284.443483 
L 95.810256 283.919314 
L 99.640197 283.33997 
L 103.470139 282.705451 
L 107.300081 282.015755 
L 111.130022 281.270885 
L 114.959964 280.470838 
L 118.789905 279.615616 
L 122.619847 278.705218 
L 126.449789 277.739645 
L 130.27973 276.718896 
L 134.109672 275.642971 
L 137.939613 274.511871 
L 141.769555 273.325595 
L 145.599497 272.084144 
L 149.429438 270.787517 
L 153.25938 269.435714 
L 157.089321 268.028736 
L 160.919263 266.566582 
L 164.749205 265.049253 
L 168.579146 263.476747 
L 172.409088 261.849067 
L 176.239029 260.16621 
L 180.068971 258.428178 
L 183.898913 256.634971 
L 187.728854 254.786587 
L 191.558796 252.883029 
L 195.388738 250.924294 
L 199.218679 248.910384 
L 203.048621 246.841298 
L 206.878562 244.717037 
L 210.708504 242.5376 
L 214.538446 240.302987 
L 218.368387 238.013199 
L 222.198329 235.668235 
L 226.02827 233.268096 
L 229.858212 230.812781 
L 233.688154 228.30229 
L 237.518095 225.736624 
L 241.348037 223.115782 
L 245.177978 220.439765 
L 249.00792 217.708571 
L 252.837862 214.922203 
L 256.667803 212.080658 
L 260.497745 209.183938 
L 264.327686 206.232043 
L 268.157628 203.224971 
L 271.98757 200.162725 
L 275.817511 197.045302 
L 279.647453 193.872704 
L 283.477394 190.64493 
L 287.307336 187.361981 
L 291.137278 184.023856 
L 294.967219 180.630555 
L 298.797161 177.182079 
L 302.627102 173.678427 
L 306.457044 170.1196 
L 310.286986 166.505597 
L 314.116927 162.836418 
L 317.946869 159.112064 
L 321.77681 155.332534 
L 325.606752 151.497829 
L 329.436694 147.607947 
L 333.266635 143.662891 
L 337.096577 139.662658 
L 340.926518 135.60725 
L 344.75646 131.496667 
L 348.586402 127.330907 
L 352.416343 123.109973 
L 356.246285 118.833862 
L 360.076226 114.502576 
L 363.906168 110.116114 
L 367.73611 105.674477 
L 371.566051 101.177664 
L 375.395993 96.625675 
L 379.225934 92.018511 
L 383.055876 87.356171 
L 386.885818 82.638656 
L 390.715759 77.865965 
L 394.545701 73.038098 
L 398.375642 68.155056 
L 402.205584 63.216838 
L 406.035526 58.223445 
L 409.865467 53.174875 
L 413.695409 48.071131 
L 417.52535 42.91221 
L 421.355292 37.698114 
L 425.185234 32.428843 
L 429.015175 27.104395 
L 432.845117 21.724773 
L 436.675058 16.289974 
L 440.505 10.8 
" clip-path="url(#pc99ee4d3a2)" style="fill: none; stroke: #1f77b4; stroke-width: 1.5; stroke-linecap: square"/>
   </g>
   <g id="line2d_7">
    <path d="M 57.51084 203.221933 
L 61.340781 203.221933 
L 65.170723 203.221933 
L 69.000665 203.221933 
L 72.830606 203.221933 
L 76.660548 203.221933 
L 80.490489 203.221933 
L 84.320431 203.221933 
L 88.150373 203.221933 
L 91.980314 203.221933 
L 95.810256 203.221933 
L 99.640197 203.221933 
L 103.470139 203.221933 
L 107.300081 203.221933 
L 111.130022 203.221933 
L 114.959964 203.221933 
L 118.789905 203.221933 
L 122.619847 203.221933 
L 126.449789 203.221933 
L 130.27973 203.221933 
L 134.109672 203.221933 
L 137.939613 203.221933 
L 141.769555 203.221933 
L 145.599497 203.221933 
L 149.429438 203.221933 
L 153.25938 203.221933 
L 157.089321 203.221933 
L 160.919263 203.221933 
L 164.749205 203.221933 
L 168.579146 203.221933 
L 172.409088 203.221933 
L 176.239029 203.221933 
L 180.068971 203.221933 
L 183.898913 203.221933 
L 187.728854 203.221933 
L 191.558796 203.221933 
L 195.388738 203.221933 
L 199.218679 203.221933 
L 203.048621 203.221933 
L 206.878562 203.221933 
L 210.708504 203.221933 
L 214.538446 203.221933 
L 218.368387 203.221933 
L 222.198329 203.221933 
L 226.02827 203.221933 
L 229.858212 203.221933 
L 233.688154 203.221933 
L 237.518095 203.221933 
L 241.348037 203.221933 
L 245.177978 203.221933 
L 249.00792 203.221933 
L 252.837862 203.221933 
L 256.667803 203.221933 
L 260.497745 203.221933 
L 264.327686 203.221933 
L 268.157628 203.221933 
L 271.98757 203.221933 
L 275.817511 203.221933 
L 279.647453 203.221933 
L 283.477394 203.221933 
L 287.307336 203.221933 
L 291.137278 203.221933 
L 294.967219 203.221933 
L 298.797161 203.221933 
L 302.627102 203.221933 
L 306.457044 203.221933 
L 310.286986 203.221933 
L 314.116927 203.221933 
L 317.946869 203.221933 
L 321.77681 203.221933 
L 325.606752 203.221933 
L 329.436694 203.221933 
L 333.266635 203.221933 
L 337.096577 203.221933 
L 340.926518 203.221933 
L 344.75646 203.221933 
L 348.586402 203.221933 
L 352.416343 203.221933 
L 356.246285 203.221933 
L 360.076226 203.221933 
L 363.906168 203.221933 
L 367.73611 203.221933 
L 371.566051 203.221933 
L 375.395993 203.221933 
L 379.225934 203.221933 
L 383.055876 203.221933 
L 386.885818 203.221933 
L 390.715759 203.221933 
L 394.545701 203.221933 
L 398.375642 203.221933 
L 402.205584 203.221933 
L 406.035526 203.221933 
L 409.865467 203.221933 
L 413.695409 203.221933 
L 417.52535 203.221933 
L 421.355292 203.221933 
L 425.185234 203.221933 
L 429.015175 203.221933 
L 432.845117 203.221933 
L 436.675058 203.221933 
L 440.505 203.221933 
" clip-path="url(#pc99ee4d3a2)" style="fill: none; stroke: #2ca02c; stroke-width: 1.5; stroke-linecap: square"/>
   </g>
   <g id="line2d_8">
    <path d="M 57.51084 286.678095 
L 61.340781 286.678095 
L 65.170723 286.678095 
L 69.000665 286.678095 
L 72.830606 286.678095 
L 76.660548 286.678095 
L 80.490489 286.678095 
L 84.320431 286.678095 
L 88.150373 286.678095 
L 91.980314 286.678095 
L 95.810256 286.678095 
L 99.640197 286.678095 
L 103.470139 286.678095 
L 107.300081 286.678095 
L 111.130022 286.678095 
L 114.959964 286.678095 
L 118.789905 286.678095 
L 122.619847 286.678095 
L 126.449789 286.678095 
L 130.27973 286.678095 
L 134.109672 286.678095 
L 137.939613 286.678095 
L 141.769555 286.678095 
L 145.599497 286.678095 
L 149.429438 286.678095 
L 153.25938 286.678095 
L 157.089321 286.678095 
L 160.919263 286.678095 
L 164.749205 286.678095 
L 168.579146 286.678095 
L 172.409088 286.678095 
L 176.239029 286.678095 
L 180.068971 286.678095 
L 183.898913 286.678095 
L 187.728854 286.678095 
L 191.558796 286.678095 
L 195.388738 286.678095 
L 199.218679 286.678095 
L 203.048621 286.678095 
L 206.878562 286.678095 
L 210.708504 286.678095 
L 214.538446 286.678095 
L 218.368387 286.678095 
L 222.198329 286.678095 
L 226.02827 286.678095 
L 229.858212 286.678095 
L 233.688154 286.678095 
L 237.518095 286.678095 
L 241.348037 286.678095 
L 245.177978 286.678095 
L 249.00792 286.678095 
L 252.837862 286.678095 
L 256.667803 286.678095 
L 260.497745 286.678095 
L 264.327686 286.678095 
L 268.157628 286.678095 
L 271.98757 286.678095 
L 275.817511 286.678095 
L 279.647453 286.678095 
L 283.477394 286.678095 
L 287.307336 286.678095 
L 291.137278 286.678095 
L 294.967219 286.678095 
L 298.797161 286.678095 
L 302.627102 286.678095 
L 306.457044 286.678095 
L 310.286986 286.678095 
L 314.116927 286.678095 
L 317.946869 286.678095 
L 321.77681 286.678095 
L 325.606752 286.678095 
L 329.436694 286.678095 
L 333.266635 286.678095 
L 337.096577 286.678095 
L 340.926518 286.678095 
L 344.75646 286.678095 
L 348.586402 286.678095 
L 352.416343 286.678095 
L 356.246285 286.678095 
L 360.076226 286.678095 
L 363.906168 286.678095 
L 367.73611 286.678095 
L 371.566051 286.678095 
L 375.395993 286.678095 
L 379.225934 286.678095 
L 383.055876 286.678095 
L 386.885818 286.678095 
L 390.715759 286.678095 
L 394.545701 286.678095 
L 398.375642 286.678095 
L 402.205584 286.678095 
L 406.035526 286.678095 
L 409.865467 286.678095 
L 413.695409 286.678095 
L 417.52535 286.678095 
L 421.355292 286.678095 
L 425.185234 286.678095 
L 429.015175 286.678095 
L 432.845117 286.678095 
L 436.675058 286.678095 
L 440.505 286.678095 
" clip-path="url(#pc99ee4d3a2)" style="fill: none; stroke: #000000; stroke-width: 0.5; stroke-linecap: square"/>
   </g>
   <g id="patch_3">
    <path d="M 57.51084 300.472 
L 57.51084 10.8 
" style="fill: none; stroke: #000000; stroke-width: 0.8; stroke-linejoin: miter; stroke-linecap: square"/>
   </g>
   <g id="patch_4">
    <path d="M 440.505 300.472 
L 440.505 10.8 
" style="fill: none; stroke: #000000; stroke-width: 0.8; stroke-linejoin: miter; stroke-linecap: square"/>
   </g>
   <g id="patch_5">
    <path d="M 57.51084 300.472 
L 440.505 300.472 
" style="fill: none; stroke: #000000; stroke-width: 0.8; stroke-linejoin: miter; stroke-linecap: square"/>
   </g>
   <g id="patch_6">
    <path d="M 57.51084 10.8 
L 440.505 10.8 
" style="fill: none; stroke: #000000; stroke-width: 0.8; stroke-linejoin: miter; stroke-linecap: square"/>
   </g>
   <g id="legend_1">
    <g id="patch_7">
     <path d="M 64.51084 49.176562 
L 120.71084 49.176562 
Q 122.71084 49.176562 122.71084 47.176562 
L 122.71084 17.8 
Q 122.71084 15.8 120.71084 15.8 
L 64.51084 15.8 
Q 62.51084 15.8 62.51084 17.8 
L 62.51084 47.176562 
Q 62.51084 49.176562 64.51084 49.176562 
z
" style="fill: #ffffff; opacity: 0.8; stroke: #cccccc; stroke-linejoin: miter"/>
    </g>
    <g id="line2d_9">
     <path d="M 66.51084 23.898438 
L 76.51084 23.898438 
L 86.51084 23.898438 
" style="fill: none; stroke: #1f77b4; stroke-width: 1.5; stroke-linecap: square"/>
    </g>
    <g id="text_8">
     <!-- $F_d(v)$ -->
     <g transform="translate(94.51084 27.398438) scale(0.1 -0.1)">
      <defs>
       <path id="DejaVuSans-Oblique-64" d="M 2675 525 
Q 2444 222 2128 65 
Q 1813 -91 1428 -91 
Q 903 -91 598 267 
Q 294 625 294 1247 
Q 294 1766 478 2236 
Q 663 2706 1013 3078 
Q 1244 3325 1534 3454 
Q 1825 3584 2144 3584 
Q 2481 3584 2739 3421 
Q 2997 3259 3138 2956 
L 3513 4863 
L 4091 4863 
L 3144 0 
L 2566 0 
L 2675 525 
z
M 891 1350 
Q 891 897 1095 644 
Q 1300 391 1663 391 
Q 1931 391 2161 520 
Q 2391 650 2566 903 
Q 2750 1166 2856 1509 
Q 2963 1853 2963 2188 
Q 2963 2622 2758 2865 
Q 2553 3109 2194 3109 
Q 1922 3109 1687 2981 
Q 1453 2853 1288 2613 
Q 1106 2353 998 2009 
Q 891 1666 891 1350 
z
" transform="scale(0.015625)"/>
      </defs>
      <use xlink:href="#DejaVuSans-Oblique-46" transform="translate(0 0.125)"/>
      <use xlink:href="#DejaVuSans-Oblique-64" transform="translate(57.519531 -16.28125) scale(0.7)"/>
      <use xlink:href="#DejaVuSans-28" transform="translate(104.6875 0.125)"/>
      <use xlink:href="#DejaVuSans-Oblique-76" transform="translate(143.701172 0.125)"/>
      <use xlink:href="#DejaVuSans-29" transform="translate(202.880859 0.125)"/>
     </g>
    </g>
    <g id="line2d_10">
     <path d="M 66.51084 38.576563 
L 76.51084 38.576563 
L 86.51084 38.576563 
" style="fill: none; stroke: #2ca02c; stroke-width: 1.5; stroke-linecap: square"/>
    </g>
    <g id="text_9">
     <!-- $F_g$ -->
     <g transform="translate(94.51084 42.076563) scale(0.1 -0.1)">
      <use xlink:href="#DejaVuSans-Oblique-46" transform="translate(0 0.09375)"/>
      <use xlink:href="#DejaVuSans-Oblique-67" transform="translate(57.519531 -16.3125) scale(0.7)"/>
     </g>
    </g>
   </g>
  </g>
 </g>
 <defs>
  <clipPath id="pc99ee4d3a2">
   <rect x="57.51084" y="10.8" width="382.99416" height="289.672"/>
  </clipPath>
 </defs>
</svg>
