<?xml version="1.0" encoding="utf-8" standalone="no"?>
<!DOCTYPE svg PUBLIC "-//W3C//DTD SVG 1.1//EN"
  "http://www.w3.org/Graphics/SVG/1.1/DTD/svg11.dtd">
<svg xmlns:xlink="http://www.w3.org/1999/xlink" width="432pt" height="252pt" viewBox="0 0 432 252" xmlns="http://www.w3.org/2000/svg" version="1.1">
 <metadata>
  <rdf:RDF xmlns:dc="http://purl.org/dc/elements/1.1/" xmlns:cc="http://creativecommons.org/ns#" xmlns:rdf="http://www.w3.org/1999/02/22-rdf-syntax-ns#">
   <cc:Work>
    <dc:type rdf:resource="http://purl.org/dc/dcmitype/StillImage"/>
    <dc:date>2025-08-26T10:32:45.917911</dc:date>
    <dc:format>image/svg+xml</dc:format>
    <dc:creator>
     <cc:Agent>
      <dc:title>Matplotlib v3.10.5, https://matplotlib.org/</dc:title>
     </cc:Agent>
    </dc:creator>
   </cc:Work>
  </rdf:RDF>
 </metadata>
 <defs>
  <style type="text/css">*{stroke-linejoin: round; stroke-linecap: butt}</style>
 </defs>
 <g id="figure_1">
  <g id="patch_1">
   <path d="M 0 252 
L 432 252 
L 432 0 
L 0 0 
z
" style="fill: #ffffff"/>
  </g>
  <g id="axes_1">
   <g id="patch_2">
    <path d="M 41.15 209.32 
L 421.2 209.32 
L 421.2 10.8 
L 41.15 10.8 
z
" style="fill: #ffffff"/>
   </g>
   <g id="FillBetweenPolyCollection_1">
    <defs>
     <path id="m42f20ae517" d="M 109.016071 -96.238812 
L 109.016071 -128.628031 
L 114.00215 -132.067939 
L 118.988229 -135.255237 
L 123.974308 -138.199559 
L 128.960386 -140.910537 
L 133.946465 -143.397806 
L 138.932544 -145.670998 
L 143.918622 -147.739748 
L 148.904701 -149.613688 
L 153.89078 -151.302452 
L 158.876859 -152.815674 
L 163.862937 -154.162987 
L 168.849016 -155.354024 
L 173.835095 -156.398418 
L 178.821173 -157.305804 
L 183.807252 -158.085815 
L 188.793331 -158.748083 
L 193.77941 -159.302244 
L 198.765488 -159.757929 
L 203.751567 -160.124772 
L 208.737646 -160.412407 
L 213.723724 -160.630468 
L 218.709803 -160.788587 
L 223.695882 -160.896398 
L 228.681961 -160.963535 
L 233.668039 -160.99963 
L 238.654118 -161.014318 
L 243.640197 -161.017232 
L 248.626276 -161.018005 
L 253.612354 -161.026271 
L 258.598433 -161.051663 
L 263.584512 -161.103814 
L 268.57059 -161.192359 
L 273.556669 -161.326929 
L 278.542748 -161.51716 
L 283.528827 -161.772684 
L 288.514905 -162.103134 
L 293.500984 -162.518145 
L 298.487063 -163.027349 
L 303.473141 -163.64038 
L 308.45922 -164.366871 
L 313.445299 -165.216457 
L 318.431378 -166.198769 
L 323.417456 -167.323443 
L 328.403535 -168.60011 
L 333.389614 -170.038405 
L 338.375692 -171.647961 
L 343.361771 -173.438412 
L 348.34785 -175.41939 
L 353.333929 -177.60053 
L 353.333929 -96.238812 
L 353.333929 -96.238812 
L 348.34785 -96.238812 
L 343.361771 -96.238812 
L 338.375692 -96.238812 
L 333.389614 -96.238812 
L 328.403535 -96.238812 
L 323.417456 -96.238812 
L 318.431378 -96.238812 
L 313.445299 -96.238812 
L 308.45922 -96.238812 
L 303.473141 -96.238812 
L 298.487063 -96.238812 
L 293.500984 -96.238812 
L 288.514905 -96.238812 
L 283.528827 -96.238812 
L 278.542748 -96.238812 
L 273.556669 -96.238812 
L 268.57059 -96.238812 
L 263.584512 -96.238812 
L 258.598433 -96.238812 
L 253.612354 -96.238812 
L 248.626276 -96.238812 
L 243.640197 -96.238812 
L 238.654118 -96.238812 
L 233.668039 -96.238812 
L 228.681961 -96.238812 
L 223.695882 -96.238812 
L 218.709803 -96.238812 
L 213.723724 -96.238812 
L 208.737646 -96.238812 
L 203.751567 -96.238812 
L 198.765488 -96.238812 
L 193.77941 -96.238812 
L 188.793331 -96.238812 
L 183.807252 -96.238812 
L 178.821173 -96.238812 
L 173.835095 -96.238812 
L 168.849016 -96.238812 
L 163.862937 -96.238812 
L 158.876859 -96.238812 
L 153.89078 -96.238812 
L 148.904701 -96.238812 
L 143.918622 -96.238812 
L 138.932544 -96.238812 
L 133.946465 -96.238812 
L 128.960386 -96.238812 
L 123.974308 -96.238812 
L 118.988229 -96.238812 
L 114.00215 -96.238812 
L 109.016071 -96.238812 
z
" style="stroke: #d62728; stroke-opacity: 0.5"/>
    </defs>
    <g clip-path="url(#p3577f51368)">
     <use xlink:href="#m42f20ae517" x="0" y="252" style="fill: #d62728; fill-opacity: 0.5; stroke: #d62728; stroke-opacity: 0.5"/>
    </g>
   </g>
   <g id="matplotlib.axis_1">
    <g id="xtick_1">
     <g id="line2d_1">
      <path d="M 109.016071 209.32 
L 109.016071 10.8 
" clip-path="url(#p3577f51368)" style="fill: none; stroke: #b0b0b0; stroke-width: 0.8; stroke-linecap: square"/>
     </g>
     <g id="line2d_2">
      <defs>
       <path id="mb2f5accac7" d="M 0 0 
L 0 3.5 
" style="stroke: #000000; stroke-width: 0.8"/>
      </defs>
      <g>
       <use xlink:href="#mb2f5accac7" x="109.016071" y="209.32" style="stroke: #000000; stroke-width: 0.8"/>
      </g>
     </g>
     <g id="text_1">
      <!-- $a$ -->
      <g transform="translate(105.916071 223.918437) scale(0.1 -0.1)">
       <defs>
        <path id="DejaVuSans-Oblique-61" d="M 3438 1997 
L 3047 0 
L 2472 0 
L 2578 531 
Q 2325 219 2001 64 
Q 1678 -91 1281 -91 
Q 834 -91 548 182 
Q 263 456 263 884 
Q 263 1497 752 1853 
Q 1241 2209 2100 2209 
L 2900 2209 
L 2931 2363 
Q 2938 2388 2941 2417 
Q 2944 2447 2944 2509 
Q 2944 2788 2717 2942 
Q 2491 3097 2081 3097 
Q 1800 3097 1504 3025 
Q 1209 2953 897 2809 
L 997 3341 
Q 1322 3463 1633 3523 
Q 1944 3584 2234 3584 
Q 2853 3584 3176 3315 
Q 3500 3047 3500 2534 
Q 3500 2431 3484 2292 
Q 3469 2153 3438 1997 
z
M 2816 1759 
L 2241 1759 
Q 1534 1759 1195 1570 
Q 856 1381 856 984 
Q 856 709 1029 553 
Q 1203 397 1509 397 
Q 1978 397 2328 733 
Q 2678 1069 2791 1631 
L 2816 1759 
z
" transform="scale(0.015625)"/>
       </defs>
       <use xlink:href="#DejaVuSans-Oblique-61"/>
      </g>
     </g>
    </g>
    <g id="xtick_2">
     <g id="line2d_3">
      <path d="M 353.333929 209.32 
L 353.333929 10.8 
" clip-path="url(#p3577f51368)" style="fill: none; stroke: #b0b0b0; stroke-width: 0.8; stroke-linecap: square"/>
     </g>
     <g id="line2d_4">
      <g>
       <use xlink:href="#mb2f5accac7" x="353.333929" y="209.32" style="stroke: #000000; stroke-width: 0.8"/>
      </g>
     </g>
     <g id="text_2">
      <!-- $b$ -->
      <g transform="translate(350.133929 223.918437) scale(0.1 -0.1)">
       <defs>
        <path id="DejaVuSans-Oblique-62" d="M 3169 2138 
Q 3169 2591 2961 2847 
Q 2753 3103 2388 3103 
Q 2122 3103 1889 2973 
Q 1656 2844 1484 2597 
Q 1303 2338 1198 1995 
Q 1094 1653 1094 1313 
Q 1094 881 1298 636 
Q 1503 391 1863 391 
Q 2134 391 2365 517 
Q 2597 644 2772 891 
Q 2950 1147 3059 1487 
Q 3169 1828 3169 2138 
z
M 1381 2969 
Q 1594 3256 1914 3420 
Q 2234 3584 2584 3584 
Q 3122 3584 3439 3221 
Q 3756 2859 3756 2241 
Q 3756 1734 3570 1259 
Q 3384 784 3041 416 
Q 2816 172 2522 40 
Q 2228 -91 1906 -91 
Q 1566 -91 1316 65 
Q 1066 222 909 531 
L 806 0 
L 231 0 
L 1178 4863 
L 1753 4863 
L 1381 2969 
z
" transform="scale(0.015625)"/>
       </defs>
       <use xlink:href="#DejaVuSans-Oblique-62" transform="translate(0 0.015625)"/>
      </g>
     </g>
    </g>
    <g id="text_3">
     <!-- $x$ -->
     <g transform="translate(228.175 237.596563) scale(0.1 -0.1)">
      <defs>
       <path id="DejaVuSans-Oblique-78" d="M 3841 3500 
L 2234 1784 
L 3219 0 
L 2559 0 
L 1819 1388 
L 531 0 
L -166 0 
L 1556 1844 
L 641 3500 
L 1300 3500 
L 1972 2234 
L 3144 3500 
L 3841 3500 
z
" transform="scale(0.015625)"/>
      </defs>
      <use xlink:href="#DejaVuSans-Oblique-78" transform="translate(0 0.3125)"/>
     </g>
    </g>
   </g>
   <g id="matplotlib.axis_2">
    <g id="ytick_1">
     <g id="line2d_5">
      <path d="M 41.15 155.761188 
L 421.2 155.761188 
" clip-path="url(#p3577f51368)" style="fill: none; stroke: #b0b0b0; stroke-width: 0.8; stroke-linecap: square"/>
     </g>
     <g id="line2d_6">
      <defs>
       <path id="ma24096a68d" d="M 0 0 
L -3.5 0 
" style="stroke: #000000; stroke-width: 0.8"/>
      </defs>
      <g>
       <use xlink:href="#ma24096a68d" x="41.15" y="155.761188" style="stroke: #000000; stroke-width: 0.8"/>
      </g>
     </g>
     <g id="text_4">
      <!-- 0 -->
      <g transform="translate(27.7875 159.560407) scale(0.1 -0.1)">
       <defs>
        <path id="DejaVuSans-30" d="M 2034 4250 
Q 1547 4250 1301 3770 
Q 1056 3291 1056 2328 
Q 1056 1369 1301 889 
Q 1547 409 2034 409 
Q 2525 409 2770 889 
Q 3016 1369 3016 2328 
Q 3016 3291 2770 3770 
Q 2525 4250 2034 4250 
z
M 2034 4750 
Q 2819 4750 3233 4129 
Q 3647 3509 3647 2328 
Q 3647 1150 3233 529 
Q 2819 -91 2034 -91 
Q 1250 -91 836 529 
Q 422 1150 422 2328 
Q 422 3509 836 4129 
Q 1250 4750 2034 4750 
z
" transform="scale(0.015625)"/>
       </defs>
       <use xlink:href="#DejaVuSans-30"/>
      </g>
     </g>
    </g>
    <g id="text_5">
     <!-- $y=f(x)$ -->
     <g transform="translate(21.6875 127.81) rotate(-90) scale(0.1 -0.1)">
      <defs>
       <path id="DejaVuSans-Oblique-79" d="M 1588 -325 
Q 1188 -997 936 -1164 
Q 684 -1331 294 -1331 
L -159 -1331 
L -63 -850 
L 269 -850 
Q 509 -850 678 -719 
Q 847 -588 1056 -206 
L 1234 128 
L 459 3500 
L 1069 3500 
L 1650 819 
L 3256 3500 
L 3859 3500 
L 1588 -325 
z
" transform="scale(0.015625)"/>
       <path id="DejaVuSans-3d" d="M 678 2906 
L 4684 2906 
L 4684 2381 
L 678 2381 
L 678 2906 
z
M 678 1631 
L 4684 1631 
L 4684 1100 
L 678 1100 
L 678 1631 
z
" transform="scale(0.015625)"/>
       <path id="DejaVuSans-Oblique-66" d="M 3059 4863 
L 2969 4384 
L 2419 4384 
Q 2106 4384 1964 4261 
Q 1822 4138 1753 3809 
L 1691 3500 
L 2638 3500 
L 2553 3053 
L 1606 3053 
L 1013 0 
L 434 0 
L 1031 3053 
L 481 3053 
L 563 3500 
L 1113 3500 
L 1159 3744 
Q 1278 4363 1576 4613 
Q 1875 4863 2516 4863 
L 3059 4863 
z
" transform="scale(0.015625)"/>
       <path id="DejaVuSans-28" d="M 1984 4856 
Q 1566 4138 1362 3434 
Q 1159 2731 1159 2009 
Q 1159 1288 1364 580 
Q 1569 -128 1984 -844 
L 1484 -844 
Q 1016 -109 783 600 
Q 550 1309 550 2009 
Q 550 2706 781 3412 
Q 1013 4119 1484 4856 
L 1984 4856 
z
" transform="scale(0.015625)"/>
       <path id="DejaVuSans-29" d="M 513 4856 
L 1013 4856 
Q 1481 4119 1714 3412 
Q 1947 2706 1947 2009 
Q 1947 1309 1714 600 
Q 1481 -109 1013 -844 
L 513 -844 
Q 928 -128 1133 580 
Q 1338 1288 1338 2009 
Q 1338 2731 1133 3434 
Q 928 4138 513 4856 
z
" transform="scale(0.015625)"/>
      </defs>
      <use xlink:href="#DejaVuSans-Oblique-79" transform="translate(0 0.015625)"/>
      <use xlink:href="#DejaVuSans-3d" transform="translate(78.662109 0.015625)"/>
      <use xlink:href="#DejaVuSans-Oblique-66" transform="translate(181.933594 0.015625)"/>
      <use xlink:href="#DejaVuSans-28" transform="translate(217.138672 0.015625)"/>
      <use xlink:href="#DejaVuSans-Oblique-78" transform="translate(256.152344 0.015625)"/>
      <use xlink:href="#DejaVuSans-29" transform="translate(315.332031 0.015625)"/>
     </g>
    </g>
   </g>
   <g id="line2d_7">
    <path d="M 41.15 200.296364 
L 48.906122 188.273259 
L 56.662245 177.16574 
L 64.418367 166.937546 
L 72.17449 157.552415 
L 79.930612 148.974088 
L 87.686735 141.166304 
L 95.442857 134.0928 
L 103.19898 127.717318 
L 110.955102 122.003595 
L 118.711224 116.915372 
L 126.467347 112.416386 
L 134.223469 108.470379 
L 141.979592 105.041088 
L 149.735714 102.092252 
L 157.491837 99.587612 
L 165.247959 97.490906 
L 173.004082 95.765873 
L 180.760204 94.376253 
L 188.516327 93.285784 
L 196.272449 92.458207 
L 204.028571 91.857259 
L 211.784694 91.446681 
L 219.540816 91.190211 
L 227.296939 91.051589 
L 235.053061 90.994554 
L 242.809184 90.982845 
L 250.565306 90.980201 
L 258.321429 90.950361 
L 266.077551 90.857065 
L 273.833673 90.664052 
L 281.589796 90.33506 
L 289.345918 89.83383 
L 297.102041 89.1241 
L 304.858163 88.16961 
L 312.614286 86.934098 
L 320.370408 85.381304 
L 328.126531 83.474967 
L 335.882653 81.178826 
L 343.638776 78.456621 
L 351.394898 75.27209 
L 359.15102 71.588974 
L 366.907143 67.37101 
L 374.663265 62.581938 
L 382.419388 57.185497 
L 390.17551 51.145427 
L 397.931633 44.425467 
L 405.687755 36.989356 
L 413.443878 28.800832 
L 421.2 19.823636 
" clip-path="url(#p3577f51368)" style="fill: none; stroke: #1f77b4; stroke-width: 1.5; stroke-linecap: square"/>
   </g>
   <g id="LineCollection_1">
    <path d="M 41.15 155.761188 
L 421.2 155.761188 
" clip-path="url(#p3577f51368)" style="fill: none; stroke: #000000; stroke-width: 0.5"/>
   </g>
   <g id="line2d_8">
    <defs>
     <path id="mb2f7935f64" d="M 0 3 
C 0.795609 3 1.55874 2.683901 2.12132 2.12132 
C 2.683901 1.55874 3 0.795609 3 0 
C 3 -0.795609 2.683901 -1.55874 2.12132 -2.12132 
C 1.55874 -2.683901 0.795609 -3 0 -3 
C -0.795609 -3 -1.55874 -2.683901 -2.12132 -2.12132 
C -2.683901 -1.55874 -3 -0.795609 -3 0 
C -3 0.795609 -2.683901 1.55874 -2.12132 2.12132 
C -1.55874 2.683901 -0.795609 3 0 3 
z
" style="stroke: #d62728"/>
    </defs>
    <g clip-path="url(#p3577f51368)">
     <use xlink:href="#mb2f7935f64" x="109.016071" y="123.371969" style="fill: #d62728; stroke: #d62728"/>
     <use xlink:href="#mb2f7935f64" x="353.333929" y="74.39947" style="fill: #d62728; stroke: #d62728"/>
    </g>
   </g>
   <g id="line2d_9">
    <path d="M 109.016071 123.371969 
L 114.00215 119.932061 
L 118.988229 116.744763 
L 123.974308 113.800441 
L 128.960386 111.089463 
L 133.946465 108.602194 
L 138.932544 106.329002 
L 143.918622 104.260252 
L 148.904701 102.386312 
L 153.89078 100.697548 
L 158.876859 99.184326 
L 163.862937 97.837013 
L 168.849016 96.645976 
L 173.835095 95.601582 
L 178.821173 94.694196 
L 183.807252 93.914185 
L 188.793331 93.251917 
L 193.77941 92.697756 
L 198.765488 92.242071 
L 203.751567 91.875228 
L 208.737646 91.587593 
L 213.723724 91.369532 
L 218.709803 91.211413 
L 223.695882 91.103602 
L 228.681961 91.036465 
L 233.668039 91.00037 
L 238.654118 90.985682 
L 243.640197 90.982768 
L 248.626276 90.981995 
L 253.612354 90.973729 
L 258.598433 90.948337 
L 263.584512 90.896186 
L 268.57059 90.807641 
L 273.556669 90.673071 
L 278.542748 90.48284 
L 283.528827 90.227316 
L 288.514905 89.896866 
L 293.500984 89.481855 
L 298.487063 88.972651 
L 303.473141 88.35962 
L 308.45922 87.633129 
L 313.445299 86.783543 
L 318.431378 85.801231 
L 323.417456 84.676557 
L 328.403535 83.39989 
L 333.389614 81.961595 
L 338.375692 80.352039 
L 343.361771 78.561588 
L 348.34785 76.58061 
L 353.333929 74.39947 
L 353.333929 155.761188 
L 109.016071 155.761188 
L 109.016071 123.371969 
" clip-path="url(#p3577f51368)" style="fill: none; stroke: #d62728; stroke-width: 1.5; stroke-linecap: square"/>
   </g>
   <g id="patch_3">
    <path d="M 41.15 209.32 
L 41.15 10.8 
" style="fill: none; stroke: #000000; stroke-width: 0.8; stroke-linejoin: miter; stroke-linecap: square"/>
   </g>
   <g id="patch_4">
    <path d="M 421.2 209.32 
L 421.2 10.8 
" style="fill: none; stroke: #000000; stroke-width: 0.8; stroke-linejoin: miter; stroke-linecap: square"/>
   </g>
   <g id="patch_5">
    <path d="M 41.15 209.32 
L 421.2 209.32 
" style="fill: none; stroke: #000000; stroke-width: 0.8; stroke-linejoin: miter; stroke-linecap: square"/>
   </g>
   <g id="patch_6">
    <path d="M 41.15 10.8 
L 421.2 10.8 
" style="fill: none; stroke: #000000; stroke-width: 0.8; stroke-linejoin: miter; stroke-linecap: square"/>
   </g>
   <g id="patch_7">
    <path d="M 106.425254 113.190726 
Q 107.474295 117.313185 108.247617 120.352141 
" style="fill: none; stroke: #d62728; stroke-linecap: round"/>
    <path d="M 109.199405 115.982461 
L 108.247617 120.352141 
L 105.322946 116.968902 
" style="fill: none; stroke: #d62728; stroke-linecap: round"/>
   </g>
   <g id="text_6">
    <!-- $f(a)$ -->
    <g transform="translate(95.442857 107.17736) scale(0.1 -0.1)">
     <use xlink:href="#DejaVuSans-Oblique-66" transform="translate(0 0.015625)"/>
     <use xlink:href="#DejaVuSans-28" transform="translate(35.205078 0.015625)"/>
     <use xlink:href="#DejaVuSans-Oblique-61" transform="translate(74.21875 0.015625)"/>
     <use xlink:href="#DejaVuSans-29" transform="translate(135.498047 0.015625)"/>
    </g>
   </g>
   <g id="patch_8">
    <path d="M 358.144863 64.095925 
Q 356.162819 68.340855 354.653786 71.572739 
" style="fill: none; stroke: #d62728; stroke-linecap: round"/>
    <path d="M 358.158273 68.794508 
L 354.653786 71.572739 
L 354.533893 67.102211 
" style="fill: none; stroke: #d62728; stroke-linecap: round"/>
   </g>
   <g id="text_7">
    <!-- $f(b)$ -->
    <g transform="translate(353.333929 58.204861) scale(0.1 -0.1)">
     <use xlink:href="#DejaVuSans-Oblique-66" transform="translate(0 0.015625)"/>
     <use xlink:href="#DejaVuSans-28" transform="translate(35.205078 0.015625)"/>
     <use xlink:href="#DejaVuSans-Oblique-62" transform="translate(74.21875 0.015625)"/>
     <use xlink:href="#DejaVuSans-29" transform="translate(137.695312 0.015625)"/>
    </g>
   </g>
   <g id="legend_1">
    <g id="patch_9">
     <path d="M 48.15 57.678125 
L 122.85 57.678125 
Q 124.85 57.678125 124.85 55.678125 
L 124.85 17.8 
Q 124.85 15.8 122.85 15.8 
L 48.15 15.8 
Q 46.15 15.8 46.15 17.8 
L 46.15 55.678125 
Q 46.15 57.678125 48.15 57.678125 
z
" style="fill: #ffffff; opacity: 0.8; stroke: #cccccc; stroke-linejoin: miter"/>
    </g>
    <g id="line2d_10">
     <path d="M 50.15 23.898438 
L 60.15 23.898438 
L 70.15 23.898438 
" style="fill: none; stroke: #1f77b4; stroke-width: 1.5; stroke-linecap: square"/>
    </g>
    <g id="text_8">
     <!-- $f(x)$ -->
     <g transform="translate(78.15 27.398438) scale(0.1 -0.1)">
      <use xlink:href="#DejaVuSans-Oblique-66" transform="translate(0 0.015625)"/>
      <use xlink:href="#DejaVuSans-28" transform="translate(35.205078 0.015625)"/>
      <use xlink:href="#DejaVuSans-Oblique-78" transform="translate(74.21875 0.015625)"/>
      <use xlink:href="#DejaVuSans-29" transform="translate(133.398438 0.015625)"/>
     </g>
    </g>
    <g id="patch_10">
     <path d="M 50.15 48.378125 
L 70.15 48.378125 
L 70.15 41.378125 
L 50.15 41.378125 
z
" style="fill: #d62728; fill-opacity: 0.5; stroke: #d62728; stroke-opacity: 0.5; stroke-linejoin: miter"/>
    </g>
    <g id="text_9">
     <!-- $\int_a^b f(x) dx$ -->
     <g transform="translate(78.15 48.378125) scale(0.1 -0.1)">
      <defs>
       <path id="DejaVuSansDisplay-222b" d="M 2134 5525 
Q 2172 6263 2528 6556 
Q 2884 6850 3218 6850 
Q 3553 6850 3833 6575 
Q 4113 6300 4200 5678 
L 3544 5613 
Q 3469 6188 3219 6188 
Q 2906 6188 2869 5413 
L 2581 -597 
Q 2547 -1334 2187 -1628 
Q 1828 -1922 1497 -1922 
Q 1163 -1922 883 -1647 
Q 603 -1372 516 -750 
L 1172 -684 
Q 1247 -1259 1497 -1259 
Q 1809 -1259 1847 -488 
L 2134 5525 
z
" transform="scale(0.015625)"/>
       <path id="DejaVuSans-Oblique-64" d="M 2675 525 
Q 2444 222 2128 65 
Q 1813 -91 1428 -91 
Q 903 -91 598 267 
Q 294 625 294 1247 
Q 294 1766 478 2236 
Q 663 2706 1013 3078 
Q 1244 3325 1534 3454 
Q 1825 3584 2144 3584 
Q 2481 3584 2739 3421 
Q 2997 3259 3138 2956 
L 3513 4863 
L 4091 4863 
L 3144 0 
L 2566 0 
L 2675 525 
z
M 891 1350 
Q 891 897 1095 644 
Q 1300 391 1663 391 
Q 1931 391 2161 520 
Q 2391 650 2566 903 
Q 2750 1166 2856 1509 
Q 2963 1853 2963 2188 
Q 2963 2622 2758 2865 
Q 2553 3109 2194 3109 
Q 1922 3109 1687 2981 
Q 1453 2853 1288 2613 
Q 1106 2353 998 2009 
Q 891 1666 891 1350 
z
" transform="scale(0.015625)"/>
      </defs>
      <use xlink:href="#DejaVuSansDisplay-222b" transform="translate(0 0.654688)"/>
      <use xlink:href="#DejaVuSans-Oblique-62" transform="translate(86.744141 85.810937) scale(0.7)"/>
      <use xlink:href="#DejaVuSans-Oblique-61" transform="translate(71.759766 -51.251563) scale(0.7)"/>
      <use xlink:href="#DejaVuSans-Oblique-66" transform="translate(131.177734 0.654688)"/>
      <use xlink:href="#DejaVuSans-28" transform="translate(166.382812 0.654688)"/>
      <use xlink:href="#DejaVuSans-Oblique-78" transform="translate(205.396484 0.654688)"/>
      <use xlink:href="#DejaVuSans-29" transform="translate(264.576172 0.654688)"/>
      <use xlink:href="#DejaVuSans-Oblique-64" transform="translate(303.589844 0.654688)"/>
      <use xlink:href="#DejaVuSans-Oblique-78" transform="translate(367.066406 0.654688)"/>
     </g>
    </g>
   </g>
  </g>
 </g>
 <defs>
  <clipPath id="p3577f51368">
   <rect x="41.15" y="10.8" width="380.05" height="198.52"/>
  </clipPath>
 </defs>
</svg>
