<?xml version="1.0" encoding="utf-8" standalone="no"?>
<!DOCTYPE svg PUBLIC "-//W3C//DTD SVG 1.1//EN"
  "http://www.w3.org/Graphics/SVG/1.1/DTD/svg11.dtd">
<svg xmlns:xlink="http://www.w3.org/1999/xlink" width="360pt" height="360pt" viewBox="0 0 360 360" xmlns="http://www.w3.org/2000/svg" version="1.1">
 <metadata>
  <rdf:RDF xmlns:dc="http://purl.org/dc/elements/1.1/" xmlns:cc="http://creativecommons.org/ns#" xmlns:rdf="http://www.w3.org/1999/02/22-rdf-syntax-ns#">
   <cc:Work>
    <dc:type rdf:resource="http://purl.org/dc/dcmitype/StillImage"/>
    <dc:date>2025-08-26T13:28:12.671161</dc:date>
    <dc:format>image/svg+xml</dc:format>
    <dc:creator>
     <cc:Agent>
      <dc:title>Matplotlib v3.10.5, https://matplotlib.org/</dc:title>
     </cc:Agent>
    </dc:creator>
   </cc:Work>
  </rdf:RDF>
 </metadata>
 <defs>
  <style type="text/css">*{stroke-linejoin: round; stroke-linecap: butt}</style>
 </defs>
 <g id="figure_1">
  <g id="patch_1">
   <path d="M 0 360 
L 360 360 
L 360 0 
L 0 0 
z
" style="fill: #ffffff"/>
  </g>
  <g id="axes_1">
   <g id="patch_2">
    <path d="M 48.62 314.71 
L 349.2 314.71 
L 349.2 14.13 
L 48.62 14.13 
z
" style="fill: #ffffff"/>
   </g>
   <g id="FillBetweenPolyCollection_1">
    <path d="M 62.282727 164.42 
L 62.282727 164.42 
L 62.829236 152.211912 
L 63.375745 147.172464 
L 63.922255 143.317388 
L 64.468764 140.077329 
L 65.015273 137.231516 
L 65.561782 134.666608 
L 66.108291 132.315207 
L 66.6548 130.133359 
L 67.201309 128.090502 
L 67.747818 126.164364 
L 68.294327 124.338113 
L 68.840836 122.598662 
L 69.387345 120.935593 
L 69.933855 119.340453 
L 70.480364 117.806266 
L 71.026873 116.3272 
L 71.573382 114.898315 
L 72.119891 113.515384 
L 72.6664 112.17476 
L 73.212909 110.873263 
L 73.759418 109.608108 
L 74.305927 108.376832 
L 74.852436 107.177249 
L 75.398945 106.007407 
L 75.945455 104.865553 
L 76.491964 103.750106 
L 77.038473 102.659637 
L 77.584982 101.592843 
L 78.131491 100.54854 
L 78.678 99.525641 
L 79.224509 98.523149 
L 79.771018 97.540148 
L 80.317527 96.575788 
L 80.864036 95.629288 
L 81.410545 94.699918 
L 81.957055 93.787003 
L 82.503564 92.889914 
L 83.050073 92.008061 
L 83.596582 91.140895 
L 84.143091 90.2879 
L 84.6896 89.448593 
L 85.236109 88.622519 
L 85.782618 87.809249 
L 86.329127 87.008381 
L 86.875636 86.219533 
L 87.422145 85.442345 
L 87.968655 84.676477 
L 88.515164 83.921604 
L 89.061673 83.177421 
L 89.608182 82.443636 
L 90.154691 81.719973 
L 90.7012 81.006169 
L 91.247709 80.301971 
L 91.794218 79.607142 
L 92.340727 78.921452 
L 92.887236 78.244683 
L 93.433745 77.576627 
L 93.980255 76.917085 
L 94.526764 76.265864 
L 95.073273 75.622783 
L 95.619782 74.987665 
L 96.166291 74.360343 
L 96.7128 73.740653 
L 97.259309 73.128441 
L 97.805818 72.523558 
L 98.352327 71.925859 
L 98.898836 71.335206 
L 99.445345 70.751467 
L 99.991855 70.174511 
L 100.538364 69.604216 
L 101.084873 69.040463 
L 101.631382 68.483135 
L 102.177891 67.932121 
L 102.7244 67.387315 
L 103.270909 66.848611 
L 103.817418 66.31591 
L 104.363927 65.789113 
L 104.910436 65.268128 
L 105.456945 64.752863 
L 106.003455 64.243229 
L 106.549964 63.739141 
L 107.096473 63.240517 
L 107.642982 62.747275 
L 108.189491 62.259338 
L 108.736 61.77663 
L 109.282509 61.299078 
L 109.829018 60.826611 
L 110.375527 60.359158 
L 110.922036 59.896654 
L 111.468545 59.439032 
L 112.015055 58.986229 
L 112.561564 58.538183 
L 113.108073 58.094834 
L 113.654582 57.656124 
L 114.201091 57.221995 
L 114.7476 56.792392 
L 115.294109 56.367261 
L 115.840618 55.94655 
L 116.387127 55.530206 
L 116.933636 55.118182 
L 117.480145 54.710427 
L 118.026655 54.306894 
L 118.573164 53.907537 
L 119.119673 53.512312 
L 119.666182 53.121173 
L 120.212691 52.734078 
L 120.7592 52.350985 
L 121.305709 51.971853 
L 121.852218 51.596643 
L 122.398727 51.225315 
L 122.945236 50.857831 
L 123.491745 50.494153 
L 124.038255 50.134247 
L 124.584764 49.778075 
L 125.131273 49.425604 
L 125.677782 49.0768 
L 126.224291 48.731628 
L 126.7708 48.390058 
L 127.317309 48.052057 
L 127.863818 47.717593 
L 128.410327 47.386638 
L 128.956836 47.059161 
L 129.503345 46.735133 
L 130.049855 46.414525 
L 130.596364 46.097311 
L 131.142873 45.783462 
L 131.689382 45.472952 
L 132.235891 45.165756 
L 132.7824 44.861846 
L 133.328909 44.561199 
L 133.875418 44.26379 
L 134.421927 43.969595 
L 134.968436 43.67859 
L 135.514945 43.390753 
L 136.061455 43.10606 
L 136.607964 42.824491 
L 137.154473 42.546022 
L 137.700982 42.270633 
L 138.247491 41.998304 
L 138.794 41.729013 
L 139.340509 41.462742 
L 139.887018 41.199469 
L 140.433527 40.939176 
L 140.980036 40.681845 
L 141.526545 40.427457 
L 142.073055 40.175993 
L 142.619564 39.927436 
L 143.166073 39.681769 
L 143.712582 39.438975 
L 144.259091 39.199036 
L 144.8056 38.961937 
L 145.352109 38.727661 
L 145.898618 38.496193 
L 146.445127 38.267518 
L 146.991636 38.041619 
L 147.538145 37.818483 
L 148.084655 37.598094 
L 148.631164 37.380438 
L 149.177673 37.165502 
L 149.724182 36.953271 
L 150.270691 36.743733 
L 150.8172 36.536873 
L 151.363709 36.332679 
L 151.910218 36.131138 
L 152.456727 35.932238 
L 153.003236 35.735966 
L 153.549745 35.54231 
L 154.096255 35.351259 
L 154.642764 35.162801 
L 155.189273 34.976925 
L 155.735782 34.793619 
L 156.282291 34.612874 
L 156.8288 34.434677 
L 157.375309 34.259019 
L 157.921818 34.085889 
L 158.468327 33.915277 
L 159.014836 33.747174 
L 159.561345 33.581569 
L 160.107855 33.418454 
L 160.654364 33.257818 
L 161.200873 33.099654 
L 161.747382 32.943951 
L 162.293891 32.790702 
L 162.8404 32.639897 
L 163.386909 32.491528 
L 163.933418 32.345588 
L 164.479927 32.202067 
L 165.026436 32.060959 
L 165.572945 31.922255 
L 166.119455 31.785948 
L 166.665964 31.65203 
L 167.212473 31.520495 
L 167.758982 31.391335 
L 168.305491 31.264543 
L 168.852 31.140113 
L 169.398509 31.018038 
L 169.945018 30.898311 
L 170.491527 30.780926 
L 171.038036 30.665877 
L 171.584545 30.553159 
L 172.131055 30.442764 
L 172.677564 30.334688 
L 173.224073 30.228924 
L 173.770582 30.125468 
L 174.317091 30.024314 
L 174.8636 29.925456 
L 175.410109 29.82889 
L 175.956618 29.734611 
L 176.503127 29.642614 
L 177.049636 29.552894 
L 177.596145 29.465447 
L 178.142655 29.380269 
L 178.689164 29.297354 
L 179.235673 29.216699 
L 179.782182 29.1383 
L 180.328691 29.062154 
L 180.8752 28.988255 
L 181.421709 28.9166 
L 181.968218 28.847187 
L 182.514727 28.780011 
L 183.061236 28.715069 
L 183.607745 28.652358 
L 184.154255 28.591875 
L 184.700764 28.533616 
L 185.247273 28.47758 
L 185.793782 28.423763 
L 186.340291 28.372163 
L 186.8868 28.322776 
L 187.433309 28.275602 
L 187.979818 28.230636 
L 188.526327 28.187878 
L 189.072836 28.147325 
L 189.619345 28.108976 
L 190.165855 28.072827 
L 190.712364 28.038878 
L 191.258873 28.007127 
L 191.805382 27.977572 
L 192.351891 27.950213 
L 192.8984 27.925047 
L 193.444909 27.902073 
L 193.991418 27.88129 
L 194.537927 27.862698 
L 195.084436 27.846296 
L 195.630945 27.832082 
L 196.177455 27.820055 
L 196.723964 27.810217 
L 197.270473 27.802565 
L 197.816982 27.797099 
L 198.363491 27.79382 
L 198.91 27.792727 
L 199.456509 27.79382 
L 200.003018 27.797099 
L 200.549527 27.802565 
L 201.096036 27.810217 
L 201.642545 27.820055 
L 202.189055 27.832082 
L 202.735564 27.846296 
L 203.282073 27.862698 
L 203.828582 27.88129 
L 204.375091 27.902073 
L 204.9216 27.925047 
L 205.468109 27.950213 
L 206.014618 27.977572 
L 206.561127 28.007127 
L 207.107636 28.038878 
L 207.654145 28.072827 
L 208.200655 28.108976 
L 208.747164 28.147325 
L 209.293673 28.187878 
L 209.840182 28.230636 
L 210.386691 28.275602 
L 210.9332 28.322776 
L 211.479709 28.372163 
L 212.026218 28.423763 
L 212.572727 28.47758 
L 213.119236 28.533616 
L 213.665745 28.591875 
L 214.212255 28.652358 
L 214.758764 28.715069 
L 215.305273 28.780011 
L 215.851782 28.847187 
L 216.398291 28.9166 
L 216.9448 28.988255 
L 217.491309 29.062154 
L 218.037818 29.1383 
L 218.584327 29.216699 
L 219.130836 29.297354 
L 219.677345 29.380269 
L 220.223855 29.465447 
L 220.770364 29.552894 
L 221.316873 29.642614 
L 221.863382 29.734611 
L 222.409891 29.82889 
L 222.9564 29.925456 
L 223.502909 30.024314 
L 224.049418 30.125468 
L 224.595927 30.228924 
L 225.142436 30.334688 
L 225.688945 30.442764 
L 226.235455 30.553159 
L 226.781964 30.665877 
L 227.328473 30.780926 
L 227.874982 30.898311 
L 228.421491 31.018038 
L 228.968 31.140113 
L 229.514509 31.264543 
L 230.061018 31.391335 
L 230.607527 31.520495 
L 231.154036 31.65203 
L 231.700545 31.785948 
L 232.247055 31.922255 
L 232.793564 32.060959 
L 233.340073 32.202067 
L 233.886582 32.345588 
L 234.433091 32.491528 
L 234.9796 32.639897 
L 235.526109 32.790702 
L 236.072618 32.943951 
L 236.619127 33.099654 
L 237.165636 33.257818 
L 237.712145 33.418454 
L 238.258655 33.581569 
L 238.805164 33.747174 
L 239.351673 33.915277 
L 239.898182 34.085889 
L 240.444691 34.259019 
L 240.9912 34.434677 
L 241.537709 34.612874 
L 242.084218 34.793619 
L 242.630727 34.976925 
L 243.177236 35.162801 
L 243.723745 35.351259 
L 244.270255 35.54231 
L 244.816764 35.735966 
L 245.363273 35.932238 
L 245.909782 36.131138 
L 246.456291 36.332679 
L 247.0028 36.536873 
L 247.549309 36.743733 
L 248.095818 36.953271 
L 248.642327 37.165502 
L 249.188836 37.380438 
L 249.735345 37.598094 
L 250.281855 37.818483 
L 250.828364 38.041619 
L 251.374873 38.267518 
L 251.921382 38.496193 
L 252.467891 38.727661 
L 253.0144 38.961937 
L 253.560909 39.199036 
L 254.107418 39.438975 
L 254.653927 39.681769 
L 255.200436 39.927436 
L 255.746945 40.175993 
L 256.293455 40.427457 
L 256.839964 40.681845 
L 257.386473 40.939176 
L 257.932982 41.199469 
L 258.479491 41.462742 
L 259.026 41.729013 
L 259.572509 41.998304 
L 260.119018 42.270633 
L 260.665527 42.546022 
L 261.212036 42.824491 
L 261.758545 43.10606 
L 262.305055 43.390753 
L 262.851564 43.67859 
L 263.398073 43.969595 
L 263.944582 44.26379 
L 264.491091 44.561199 
L 265.0376 44.861846 
L 265.584109 45.165756 
L 266.130618 45.472952 
L 266.677127 45.783462 
L 267.223636 46.097311 
L 267.770145 46.414525 
L 268.316655 46.735133 
L 268.863164 47.059161 
L 269.409673 47.386638 
L 269.956182 47.717593 
L 270.502691 48.052057 
L 271.0492 48.390058 
L 271.595709 48.731628 
L 272.142218 49.0768 
L 272.688727 49.425604 
L 273.235236 49.778075 
L 273.781745 50.134247 
L 274.328255 50.494153 
L 274.874764 50.857831 
L 275.421273 51.225315 
L 275.967782 51.596643 
L 276.514291 51.971853 
L 277.0608 52.350985 
L 277.607309 52.734078 
L 278.153818 53.121173 
L 278.700327 53.512312 
L 279.246836 53.907537 
L 279.793345 54.306894 
L 280.339855 54.710427 
L 280.886364 55.118182 
L 281.432873 55.530206 
L 281.979382 55.94655 
L 282.525891 56.367261 
L 283.0724 56.792392 
L 283.618909 57.221995 
L 284.165418 57.656124 
L 284.711927 58.094834 
L 285.258436 58.538183 
L 285.804945 58.986229 
L 286.351455 59.439032 
L 286.897964 59.896654 
L 287.444473 60.359158 
L 287.990982 60.826611 
L 288.537491 61.299078 
L 289.084 61.77663 
L 289.630509 62.259338 
L 290.177018 62.747275 
L 290.723527 63.240517 
L 291.270036 63.739141 
L 291.816545 64.243229 
L 292.363055 64.752863 
L 292.909564 65.268128 
L 293.456073 65.789113 
L 294.002582 66.31591 
L 294.549091 66.848611 
L 295.0956 67.387315 
L 295.642109 67.932121 
L 296.188618 68.483135 
L 296.735127 69.040463 
L 297.281636 69.604216 
L 297.828145 70.174511 
L 298.374655 70.751467 
L 298.921164 71.335206 
L 299.467673 71.925859 
L 300.014182 72.523558 
L 300.560691 73.128441 
L 301.1072 73.740653 
L 301.653709 74.360343 
L 302.200218 74.987665 
L 302.746727 75.622783 
L 303.293236 76.265864 
L 303.839745 76.917085 
L 304.386255 77.576627 
L 304.932764 78.244683 
L 305.479273 78.921452 
L 306.025782 79.607142 
L 306.572291 80.301971 
L 307.1188 81.006169 
L 307.665309 81.719973 
L 308.211818 82.443636 
L 308.758327 83.177421 
L 309.304836 83.921604 
L 309.851345 84.676477 
L 310.397855 85.442345 
L 310.944364 86.219533 
L 311.490873 87.008381 
L 312.037382 87.809249 
L 312.583891 88.622519 
L 313.1304 89.448593 
L 313.676909 90.2879 
L 314.223418 91.140895 
L 314.769927 92.008061 
L 315.316436 92.889914 
L 315.862945 93.787003 
L 316.409455 94.699918 
L 316.955964 95.629288 
L 317.502473 96.575788 
L 318.048982 97.540148 
L 318.595491 98.523149 
L 319.142 99.525641 
L 319.688509 100.54854 
L 320.235018 101.592843 
L 320.781527 102.659637 
L 321.328036 103.750106 
L 321.874545 104.865553 
L 322.421055 106.007407 
L 322.967564 107.177249 
L 323.514073 108.376832 
L 324.060582 109.608108 
L 324.607091 110.873263 
L 325.1536 112.17476 
L 325.700109 113.515384 
L 326.246618 114.898315 
L 326.793127 116.3272 
L 327.339636 117.806266 
L 327.886145 119.340453 
L 328.432655 120.935593 
L 328.979164 122.598662 
L 329.525673 124.338113 
L 330.072182 126.164364 
L 330.618691 128.090502 
L 331.1652 130.133359 
L 331.711709 132.315207 
L 332.258218 134.666608 
L 332.804727 137.231516 
L 333.351236 140.077329 
L 333.897745 143.317388 
L 334.444255 147.172464 
L 334.990764 152.211912 
L 335.537273 164.42 
L 335.537273 164.42 
L 335.537273 164.42 
L 334.990764 164.42 
L 334.444255 164.42 
L 333.897745 164.42 
L 333.351236 164.42 
L 332.804727 164.42 
L 332.258218 164.42 
L 331.711709 164.42 
L 331.1652 164.42 
L 330.618691 164.42 
L 330.072182 164.42 
L 329.525673 164.42 
L 328.979164 164.42 
L 328.432655 164.42 
L 327.886145 164.42 
L 327.339636 164.42 
L 326.793127 164.42 
L 326.246618 164.42 
L 325.700109 164.42 
L 325.1536 164.42 
L 324.607091 164.42 
L 324.060582 164.42 
L 323.514073 164.42 
L 322.967564 164.42 
L 322.421055 164.42 
L 321.874545 164.42 
L 321.328036 164.42 
L 320.781527 164.42 
L 320.235018 164.42 
L 319.688509 164.42 
L 319.142 164.42 
L 318.595491 164.42 
L 318.048982 164.42 
L 317.502473 164.42 
L 316.955964 164.42 
L 316.409455 164.42 
L 315.862945 164.42 
L 315.316436 164.42 
L 314.769927 164.42 
L 314.223418 164.42 
L 313.676909 164.42 
L 313.1304 164.42 
L 312.583891 164.42 
L 312.037382 164.42 
L 311.490873 164.42 
L 310.944364 164.42 
L 310.397855 164.42 
L 309.851345 164.42 
L 309.304836 164.42 
L 308.758327 164.42 
L 308.211818 164.42 
L 307.665309 164.42 
L 307.1188 164.42 
L 306.572291 164.42 
L 306.025782 164.42 
L 305.479273 164.42 
L 304.932764 164.42 
L 304.386255 164.42 
L 303.839745 164.42 
L 303.293236 164.42 
L 302.746727 164.42 
L 302.200218 164.42 
L 301.653709 164.42 
L 301.1072 164.42 
L 300.560691 164.42 
L 300.014182 164.42 
L 299.467673 164.42 
L 298.921164 164.42 
L 298.374655 164.42 
L 297.828145 164.42 
L 297.281636 164.42 
L 296.735127 164.42 
L 296.188618 164.42 
L 295.642109 164.42 
L 295.0956 164.42 
L 294.549091 164.42 
L 294.002582 164.42 
L 293.456073 164.42 
L 292.909564 164.42 
L 292.363055 164.42 
L 291.816545 164.42 
L 291.270036 164.42 
L 290.723527 164.42 
L 290.177018 164.42 
L 289.630509 164.42 
L 289.084 164.42 
L 288.537491 164.42 
L 287.990982 164.42 
L 287.444473 164.42 
L 286.897964 164.42 
L 286.351455 164.42 
L 285.804945 164.42 
L 285.258436 164.42 
L 284.711927 164.42 
L 284.165418 164.42 
L 283.618909 164.42 
L 283.0724 164.42 
L 282.525891 164.42 
L 281.979382 164.42 
L 281.432873 164.42 
L 280.886364 164.42 
L 280.339855 164.42 
L 279.793345 164.42 
L 279.246836 164.42 
L 278.700327 164.42 
L 278.153818 164.42 
L 277.607309 164.42 
L 277.0608 164.42 
L 276.514291 164.42 
L 275.967782 164.42 
L 275.421273 164.42 
L 274.874764 164.42 
L 274.328255 164.42 
L 273.781745 164.42 
L 273.235236 164.42 
L 272.688727 164.42 
L 272.142218 164.42 
L 271.595709 164.42 
L 271.0492 164.42 
L 270.502691 164.42 
L 269.956182 164.42 
L 269.409673 164.42 
L 268.863164 164.42 
L 268.316655 164.42 
L 267.770145 164.42 
L 267.223636 164.42 
L 266.677127 164.42 
L 266.130618 164.42 
L 265.584109 164.42 
L 265.0376 164.42 
L 264.491091 164.42 
L 263.944582 164.42 
L 263.398073 164.42 
L 262.851564 164.42 
L 262.305055 164.42 
L 261.758545 164.42 
L 261.212036 164.42 
L 260.665527 164.42 
L 260.119018 164.42 
L 259.572509 164.42 
L 259.026 164.42 
L 258.479491 164.42 
L 257.932982 164.42 
L 257.386473 164.42 
L 256.839964 164.42 
L 256.293455 164.42 
L 255.746945 164.42 
L 255.200436 164.42 
L 254.653927 164.42 
L 254.107418 164.42 
L 253.560909 164.42 
L 253.0144 164.42 
L 252.467891 164.42 
L 251.921382 164.42 
L 251.374873 164.42 
L 250.828364 164.42 
L 250.281855 164.42 
L 249.735345 164.42 
L 249.188836 164.42 
L 248.642327 164.42 
L 248.095818 164.42 
L 247.549309 164.42 
L 247.0028 164.42 
L 246.456291 164.42 
L 245.909782 164.42 
L 245.363273 164.42 
L 244.816764 164.42 
L 244.270255 164.42 
L 243.723745 164.42 
L 243.177236 164.42 
L 242.630727 164.42 
L 242.084218 164.42 
L 241.537709 164.42 
L 240.9912 164.42 
L 240.444691 164.42 
L 239.898182 164.42 
L 239.351673 164.42 
L 238.805164 164.42 
L 238.258655 164.42 
L 237.712145 164.42 
L 237.165636 164.42 
L 236.619127 164.42 
L 236.072618 164.42 
L 235.526109 164.42 
L 234.9796 164.42 
L 234.433091 164.42 
L 233.886582 164.42 
L 233.340073 164.42 
L 232.793564 164.42 
L 232.247055 164.42 
L 231.700545 164.42 
L 231.154036 164.42 
L 230.607527 164.42 
L 230.061018 164.42 
L 229.514509 164.42 
L 228.968 164.42 
L 228.421491 164.42 
L 227.874982 164.42 
L 227.328473 164.42 
L 226.781964 164.42 
L 226.235455 164.42 
L 225.688945 164.42 
L 225.142436 164.42 
L 224.595927 164.42 
L 224.049418 164.42 
L 223.502909 164.42 
L 222.9564 164.42 
L 222.409891 164.42 
L 221.863382 164.42 
L 221.316873 164.42 
L 220.770364 164.42 
L 220.223855 164.42 
L 219.677345 164.42 
L 219.130836 164.42 
L 218.584327 164.42 
L 218.037818 164.42 
L 217.491309 164.42 
L 216.9448 164.42 
L 216.398291 164.42 
L 215.851782 164.42 
L 215.305273 164.42 
L 214.758764 164.42 
L 214.212255 164.42 
L 213.665745 164.42 
L 213.119236 164.42 
L 212.572727 164.42 
L 212.026218 164.42 
L 211.479709 164.42 
L 210.9332 164.42 
L 210.386691 164.42 
L 209.840182 164.42 
L 209.293673 164.42 
L 208.747164 164.42 
L 208.200655 164.42 
L 207.654145 164.42 
L 207.107636 164.42 
L 206.561127 164.42 
L 206.014618 164.42 
L 205.468109 164.42 
L 204.9216 164.42 
L 204.375091 164.42 
L 203.828582 164.42 
L 203.282073 164.42 
L 202.735564 164.42 
L 202.189055 164.42 
L 201.642545 164.42 
L 201.096036 164.42 
L 200.549527 164.42 
L 200.003018 164.42 
L 199.456509 164.42 
L 198.91 164.42 
L 198.363491 164.42 
L 197.816982 164.42 
L 197.270473 164.42 
L 196.723964 164.42 
L 196.177455 164.42 
L 195.630945 164.42 
L 195.084436 164.42 
L 194.537927 164.42 
L 193.991418 164.42 
L 193.444909 164.42 
L 192.8984 164.42 
L 192.351891 164.42 
L 191.805382 164.42 
L 191.258873 164.42 
L 190.712364 164.42 
L 190.165855 164.42 
L 189.619345 164.42 
L 189.072836 164.42 
L 188.526327 164.42 
L 187.979818 164.42 
L 187.433309 164.42 
L 186.8868 164.42 
L 186.340291 164.42 
L 185.793782 164.42 
L 185.247273 164.42 
L 184.700764 164.42 
L 184.154255 164.42 
L 183.607745 164.42 
L 183.061236 164.42 
L 182.514727 164.42 
L 181.968218 164.42 
L 181.421709 164.42 
L 180.8752 164.42 
L 180.328691 164.42 
L 179.782182 164.42 
L 179.235673 164.42 
L 178.689164 164.42 
L 178.142655 164.42 
L 177.596145 164.42 
L 177.049636 164.42 
L 176.503127 164.42 
L 175.956618 164.42 
L 175.410109 164.42 
L 174.8636 164.42 
L 174.317091 164.42 
L 173.770582 164.42 
L 173.224073 164.42 
L 172.677564 164.42 
L 172.131055 164.42 
L 171.584545 164.42 
L 171.038036 164.42 
L 170.491527 164.42 
L 169.945018 164.42 
L 169.398509 164.42 
L 168.852 164.42 
L 168.305491 164.42 
L 167.758982 164.42 
L 167.212473 164.42 
L 166.665964 164.42 
L 166.119455 164.42 
L 165.572945 164.42 
L 165.026436 164.42 
L 164.479927 164.42 
L 163.933418 164.42 
L 163.386909 164.42 
L 162.8404 164.42 
L 162.293891 164.42 
L 161.747382 164.42 
L 161.200873 164.42 
L 160.654364 164.42 
L 160.107855 164.42 
L 159.561345 164.42 
L 159.014836 164.42 
L 158.468327 164.42 
L 157.921818 164.42 
L 157.375309 164.42 
L 156.8288 164.42 
L 156.282291 164.42 
L 155.735782 164.42 
L 155.189273 164.42 
L 154.642764 164.42 
L 154.096255 164.42 
L 153.549745 164.42 
L 153.003236 164.42 
L 152.456727 164.42 
L 151.910218 164.42 
L 151.363709 164.42 
L 150.8172 164.42 
L 150.270691 164.42 
L 149.724182 164.42 
L 149.177673 164.42 
L 148.631164 164.42 
L 148.084655 164.42 
L 147.538145 164.42 
L 146.991636 164.42 
L 146.445127 164.42 
L 145.898618 164.42 
L 145.352109 164.42 
L 144.8056 164.42 
L 144.259091 164.42 
L 143.712582 164.42 
L 143.166073 164.42 
L 142.619564 164.42 
L 142.073055 164.42 
L 141.526545 164.42 
L 140.980036 164.42 
L 140.433527 164.42 
L 139.887018 164.42 
L 139.340509 164.42 
L 138.794 164.42 
L 138.247491 164.42 
L 137.700982 164.42 
L 137.154473 164.42 
L 136.607964 164.42 
L 136.061455 164.42 
L 135.514945 164.42 
L 134.968436 164.42 
L 134.421927 164.42 
L 133.875418 164.42 
L 133.328909 164.42 
L 132.7824 164.42 
L 132.235891 164.42 
L 131.689382 164.42 
L 131.142873 164.42 
L 130.596364 164.42 
L 130.049855 164.42 
L 129.503345 164.42 
L 128.956836 164.42 
L 128.410327 164.42 
L 127.863818 164.42 
L 127.317309 164.42 
L 126.7708 164.42 
L 126.224291 164.42 
L 125.677782 164.42 
L 125.131273 164.42 
L 124.584764 164.42 
L 124.038255 164.42 
L 123.491745 164.42 
L 122.945236 164.42 
L 122.398727 164.42 
L 121.852218 164.42 
L 121.305709 164.42 
L 120.7592 164.42 
L 120.212691 164.42 
L 119.666182 164.42 
L 119.119673 164.42 
L 118.573164 164.42 
L 118.026655 164.42 
L 117.480145 164.42 
L 116.933636 164.42 
L 116.387127 164.42 
L 115.840618 164.42 
L 115.294109 164.42 
L 114.7476 164.42 
L 114.201091 164.42 
L 113.654582 164.42 
L 113.108073 164.42 
L 112.561564 164.42 
L 112.015055 164.42 
L 111.468545 164.42 
L 110.922036 164.42 
L 110.375527 164.42 
L 109.829018 164.42 
L 109.282509 164.42 
L 108.736 164.42 
L 108.189491 164.42 
L 107.642982 164.42 
L 107.096473 164.42 
L 106.549964 164.42 
L 106.003455 164.42 
L 105.456945 164.42 
L 104.910436 164.42 
L 104.363927 164.42 
L 103.817418 164.42 
L 103.270909 164.42 
L 102.7244 164.42 
L 102.177891 164.42 
L 101.631382 164.42 
L 101.084873 164.42 
L 100.538364 164.42 
L 99.991855 164.42 
L 99.445345 164.42 
L 98.898836 164.42 
L 98.352327 164.42 
L 97.805818 164.42 
L 97.259309 164.42 
L 96.7128 164.42 
L 96.166291 164.42 
L 95.619782 164.42 
L 95.073273 164.42 
L 94.526764 164.42 
L 93.980255 164.42 
L 93.433745 164.42 
L 92.887236 164.42 
L 92.340727 164.42 
L 91.794218 164.42 
L 91.247709 164.42 
L 90.7012 164.42 
L 90.154691 164.42 
L 89.608182 164.42 
L 89.061673 164.42 
L 88.515164 164.42 
L 87.968655 164.42 
L 87.422145 164.42 
L 86.875636 164.42 
L 86.329127 164.42 
L 85.782618 164.42 
L 85.236109 164.42 
L 84.6896 164.42 
L 84.143091 164.42 
L 83.596582 164.42 
L 83.050073 164.42 
L 82.503564 164.42 
L 81.957055 164.42 
L 81.410545 164.42 
L 80.864036 164.42 
L 80.317527 164.42 
L 79.771018 164.42 
L 79.224509 164.42 
L 78.678 164.42 
L 78.131491 164.42 
L 77.584982 164.42 
L 77.038473 164.42 
L 76.491964 164.42 
L 75.945455 164.42 
L 75.398945 164.42 
L 74.852436 164.42 
L 74.305927 164.42 
L 73.759418 164.42 
L 73.212909 164.42 
L 72.6664 164.42 
L 72.119891 164.42 
L 71.573382 164.42 
L 71.026873 164.42 
L 70.480364 164.42 
L 69.933855 164.42 
L 69.387345 164.42 
L 68.840836 164.42 
L 68.294327 164.42 
L 67.747818 164.42 
L 67.201309 164.42 
L 66.6548 164.42 
L 66.108291 164.42 
L 65.561782 164.42 
L 65.015273 164.42 
L 64.468764 164.42 
L 63.922255 164.42 
L 63.375745 164.42 
L 62.829236 164.42 
L 62.282727 164.42 
z
" clip-path="url(#p4d0553aaa3)" style="fill: #1f77b4; fill-opacity: 0.3"/>
   </g>
   <g id="matplotlib.axis_1">
    <g id="xtick_1">
     <g id="line2d_1">
      <path d="M 62.282727 314.71 
L 62.282727 14.13 
" clip-path="url(#p4d0553aaa3)" style="fill: none; stroke: #b0b0b0; stroke-width: 0.8; stroke-linecap: square"/>
     </g>
     <g id="line2d_2">
      <defs>
       <path id="m16154211fa" d="M 0 0 
L 0 3.5 
" style="stroke: #000000; stroke-width: 0.8"/>
      </defs>
      <g>
       <use xlink:href="#m16154211fa" x="62.282727" y="314.71" style="stroke: #000000; stroke-width: 0.8"/>
      </g>
     </g>
     <g id="text_1">
      <!-- −1 -->
      <g transform="translate(54.911634 329.308438) scale(0.1 -0.1)">
       <defs>
        <path id="DejaVuSans-2212" d="M 678 2272 
L 4684 2272 
L 4684 1741 
L 678 1741 
L 678 2272 
z
" transform="scale(0.015625)"/>
        <path id="DejaVuSans-31" d="M 794 531 
L 1825 531 
L 1825 4091 
L 703 3866 
L 703 4441 
L 1819 4666 
L 2450 4666 
L 2450 531 
L 3481 531 
L 3481 0 
L 794 0 
L 794 531 
z
" transform="scale(0.015625)"/>
       </defs>
       <use xlink:href="#DejaVuSans-2212"/>
       <use xlink:href="#DejaVuSans-31" transform="translate(83.789062 0)"/>
      </g>
     </g>
    </g>
    <g id="xtick_2">
     <g id="line2d_3">
      <path d="M 198.91 314.71 
L 198.91 14.13 
" clip-path="url(#p4d0553aaa3)" style="fill: none; stroke: #b0b0b0; stroke-width: 0.8; stroke-linecap: square"/>
     </g>
     <g id="line2d_4">
      <g>
       <use xlink:href="#m16154211fa" x="198.91" y="314.71" style="stroke: #000000; stroke-width: 0.8"/>
      </g>
     </g>
     <g id="text_2">
      <!-- 0 -->
      <g transform="translate(195.72875 329.308438) scale(0.1 -0.1)">
       <defs>
        <path id="DejaVuSans-30" d="M 2034 4250 
Q 1547 4250 1301 3770 
Q 1056 3291 1056 2328 
Q 1056 1369 1301 889 
Q 1547 409 2034 409 
Q 2525 409 2770 889 
Q 3016 1369 3016 2328 
Q 3016 3291 2770 3770 
Q 2525 4250 2034 4250 
z
M 2034 4750 
Q 2819 4750 3233 4129 
Q 3647 3509 3647 2328 
Q 3647 1150 3233 529 
Q 2819 -91 2034 -91 
Q 1250 -91 836 529 
Q 422 1150 422 2328 
Q 422 3509 836 4129 
Q 1250 4750 2034 4750 
z
" transform="scale(0.015625)"/>
       </defs>
       <use xlink:href="#DejaVuSans-30"/>
      </g>
     </g>
    </g>
    <g id="xtick_3">
     <g id="line2d_5">
      <path d="M 335.537273 314.71 
L 335.537273 14.13 
" clip-path="url(#p4d0553aaa3)" style="fill: none; stroke: #b0b0b0; stroke-width: 0.8; stroke-linecap: square"/>
     </g>
     <g id="line2d_6">
      <g>
       <use xlink:href="#m16154211fa" x="335.537273" y="314.71" style="stroke: #000000; stroke-width: 0.8"/>
      </g>
     </g>
     <g id="text_3">
      <!-- 1 -->
      <g transform="translate(332.356023 329.308438) scale(0.1 -0.1)">
       <use xlink:href="#DejaVuSans-31"/>
      </g>
     </g>
    </g>
    <g id="text_4">
     <!-- $x$ -->
     <g transform="translate(195.91 342.986562) scale(0.1 -0.1)">
      <defs>
       <path id="DejaVuSans-Oblique-78" d="M 3841 3500 
L 2234 1784 
L 3219 0 
L 2559 0 
L 1819 1388 
L 531 0 
L -166 0 
L 1556 1844 
L 641 3500 
L 1300 3500 
L 1972 2234 
L 3144 3500 
L 3841 3500 
z
" transform="scale(0.015625)"/>
      </defs>
      <use xlink:href="#DejaVuSans-Oblique-78" transform="translate(0 0.3125)"/>
     </g>
    </g>
   </g>
   <g id="matplotlib.axis_2">
    <g id="ytick_1">
     <g id="line2d_7">
      <path d="M 48.62 301.047273 
L 349.2 301.047273 
" clip-path="url(#p4d0553aaa3)" style="fill: none; stroke: #b0b0b0; stroke-width: 0.8; stroke-linecap: square"/>
     </g>
     <g id="line2d_8">
      <defs>
       <path id="m8b8cea6e33" d="M 0 0 
L -3.5 0 
" style="stroke: #000000; stroke-width: 0.8"/>
      </defs>
      <g>
       <use xlink:href="#m8b8cea6e33" x="48.62" y="301.047273" style="stroke: #000000; stroke-width: 0.8"/>
      </g>
     </g>
     <g id="text_5">
      <!-- −1 -->
      <g transform="translate(26.877813 304.846491) scale(0.1 -0.1)">
       <use xlink:href="#DejaVuSans-2212"/>
       <use xlink:href="#DejaVuSans-31" transform="translate(83.789062 0)"/>
      </g>
     </g>
    </g>
    <g id="ytick_2">
     <g id="line2d_9">
      <path d="M 48.62 164.42 
L 349.2 164.42 
" clip-path="url(#p4d0553aaa3)" style="fill: none; stroke: #b0b0b0; stroke-width: 0.8; stroke-linecap: square"/>
     </g>
     <g id="line2d_10">
      <g>
       <use xlink:href="#m8b8cea6e33" x="48.62" y="164.42" style="stroke: #000000; stroke-width: 0.8"/>
      </g>
     </g>
     <g id="text_6">
      <!-- 0 -->
      <g transform="translate(35.2575 168.219219) scale(0.1 -0.1)">
       <use xlink:href="#DejaVuSans-30"/>
      </g>
     </g>
    </g>
    <g id="ytick_3">
     <g id="line2d_11">
      <path d="M 48.62 27.792727 
L 349.2 27.792727 
" clip-path="url(#p4d0553aaa3)" style="fill: none; stroke: #b0b0b0; stroke-width: 0.8; stroke-linecap: square"/>
     </g>
     <g id="line2d_12">
      <g>
       <use xlink:href="#m8b8cea6e33" x="48.62" y="27.792727" style="stroke: #000000; stroke-width: 0.8"/>
      </g>
     </g>
     <g id="text_7">
      <!-- 1 -->
      <g transform="translate(35.2575 31.591946) scale(0.1 -0.1)">
       <use xlink:href="#DejaVuSans-31"/>
      </g>
     </g>
    </g>
    <g id="text_8">
     <!-- $y=f(x)$ -->
     <g transform="translate(20.777813 182.17) rotate(-90) scale(0.1 -0.1)">
      <defs>
       <path id="DejaVuSans-Oblique-79" d="M 1588 -325 
Q 1188 -997 936 -1164 
Q 684 -1331 294 -1331 
L -159 -1331 
L -63 -850 
L 269 -850 
Q 509 -850 678 -719 
Q 847 -588 1056 -206 
L 1234 128 
L 459 3500 
L 1069 3500 
L 1650 819 
L 3256 3500 
L 3859 3500 
L 1588 -325 
z
" transform="scale(0.015625)"/>
       <path id="DejaVuSans-3d" d="M 678 2906 
L 4684 2906 
L 4684 2381 
L 678 2381 
L 678 2906 
z
M 678 1631 
L 4684 1631 
L 4684 1100 
L 678 1100 
L 678 1631 
z
" transform="scale(0.015625)"/>
       <path id="DejaVuSans-Oblique-66" d="M 3059 4863 
L 2969 4384 
L 2419 4384 
Q 2106 4384 1964 4261 
Q 1822 4138 1753 3809 
L 1691 3500 
L 2638 3500 
L 2553 3053 
L 1606 3053 
L 1013 0 
L 434 0 
L 1031 3053 
L 481 3053 
L 563 3500 
L 1113 3500 
L 1159 3744 
Q 1278 4363 1576 4613 
Q 1875 4863 2516 4863 
L 3059 4863 
z
" transform="scale(0.015625)"/>
       <path id="DejaVuSans-28" d="M 1984 4856 
Q 1566 4138 1362 3434 
Q 1159 2731 1159 2009 
Q 1159 1288 1364 580 
Q 1569 -128 1984 -844 
L 1484 -844 
Q 1016 -109 783 600 
Q 550 1309 550 2009 
Q 550 2706 781 3412 
Q 1013 4119 1484 4856 
L 1984 4856 
z
" transform="scale(0.015625)"/>
       <path id="DejaVuSans-29" d="M 513 4856 
L 1013 4856 
Q 1481 4119 1714 3412 
Q 1947 2706 1947 2009 
Q 1947 1309 1714 600 
Q 1481 -109 1013 -844 
L 513 -844 
Q 928 -128 1133 580 
Q 1338 1288 1338 2009 
Q 1338 2731 1133 3434 
Q 928 4138 513 4856 
z
" transform="scale(0.015625)"/>
      </defs>
      <use xlink:href="#DejaVuSans-Oblique-79" transform="translate(0 0.015625)"/>
      <use xlink:href="#DejaVuSans-3d" transform="translate(78.662109 0.015625)"/>
      <use xlink:href="#DejaVuSans-Oblique-66" transform="translate(181.933594 0.015625)"/>
      <use xlink:href="#DejaVuSans-28" transform="translate(217.138672 0.015625)"/>
      <use xlink:href="#DejaVuSans-Oblique-78" transform="translate(256.152344 0.015625)"/>
      <use xlink:href="#DejaVuSans-29" transform="translate(315.332031 0.015625)"/>
     </g>
    </g>
   </g>
   <g id="line2d_13">
    <path d="M 62.282727 164.42 
L 62.829236 152.211912 
L 63.375745 147.172464 
L 64.468764 140.077329 
L 65.561782 134.666608 
L 67.201309 128.090502 
L 68.840836 122.598662 
L 70.480364 117.806266 
L 72.6664 112.17476 
L 74.852436 107.177249 
L 77.038473 102.659637 
L 79.771018 97.540148 
L 82.503564 92.889914 
L 85.782618 87.809249 
L 89.061673 83.177421 
L 92.340727 78.921452 
L 96.166291 74.360343 
L 99.991855 70.174511 
L 103.817418 66.31591 
L 107.642982 62.747275 
L 112.015055 58.986229 
L 116.387127 55.530206 
L 120.7592 52.350985 
L 125.131273 49.425604 
L 130.049855 46.414525 
L 134.968436 43.67859 
L 139.887018 41.199469 
L 144.8056 38.961937 
L 149.724182 36.953271 
L 154.642764 35.162801 
L 160.107855 33.418454 
L 165.572945 31.922255 
L 171.038036 30.665877 
L 176.503127 29.642614 
L 181.968218 28.847187 
L 187.433309 28.275602 
L 192.8984 27.925047 
L 198.363491 27.79382 
L 203.828582 27.88129 
L 209.293673 28.187878 
L 214.758764 28.715069 
L 220.223855 29.465447 
L 225.688945 30.442764 
L 231.154036 31.65203 
L 236.619127 33.099654 
L 242.084218 34.793619 
L 247.549309 36.743733 
L 252.467891 38.727661 
L 257.386473 40.939176 
L 262.305055 43.390753 
L 267.223636 46.097311 
L 272.142218 49.0768 
L 276.514291 51.971853 
L 280.886364 55.118182 
L 285.258436 58.538183 
L 289.630509 62.259338 
L 293.456073 65.789113 
L 297.281636 69.604216 
L 301.1072 73.740653 
L 304.932764 78.244683 
L 308.211818 82.443636 
L 311.490873 87.008381 
L 314.769927 92.008061 
L 317.502473 96.575788 
L 320.235018 101.592843 
L 322.421055 106.007407 
L 324.607091 110.873263 
L 326.793127 116.3272 
L 328.432655 120.935593 
L 330.072182 126.164364 
L 331.711709 132.315207 
L 332.804727 137.231516 
L 333.897745 143.317388 
L 334.444255 147.172464 
L 334.990764 152.211912 
L 335.537273 164.42 
L 335.537273 164.42 
" clip-path="url(#p4d0553aaa3)" style="fill: none; stroke: #1f77b4; stroke-width: 1.5; stroke-linecap: square"/>
   </g>
   <g id="patch_3">
    <path d="M 48.62 314.71 
L 48.62 14.13 
" style="fill: none; stroke: #000000; stroke-width: 0.8; stroke-linejoin: miter; stroke-linecap: square"/>
   </g>
   <g id="patch_4">
    <path d="M 349.2 314.71 
L 349.2 14.13 
" style="fill: none; stroke: #000000; stroke-width: 0.8; stroke-linejoin: miter; stroke-linecap: square"/>
   </g>
   <g id="patch_5">
    <path d="M 48.62 314.71 
L 349.2 314.71 
" style="fill: none; stroke: #000000; stroke-width: 0.8; stroke-linejoin: miter; stroke-linecap: square"/>
   </g>
   <g id="patch_6">
    <path d="M 48.62 14.13 
L 349.2 14.13 
" style="fill: none; stroke: #000000; stroke-width: 0.8; stroke-linejoin: miter; stroke-linecap: square"/>
   </g>
   <g id="text_9">
    <!-- $\frac{\pi}{2}$ -->
    <g transform="translate(184.99 106.666364) scale(0.48 -0.48)">
     <defs>
      <path id="DejaVuSans-Oblique-3c0" d="M 584 3500 
L 3938 3500 
L 3825 2925 
L 3384 2925 
L 2966 775 
Q 2922 550 2981 450 
Q 3038 353 3209 353 
Q 3256 353 3325 363 
Q 3397 369 3419 372 
L 3338 -44 
Q 3222 -84 3103 -103 
Q 2981 -122 2866 -122 
Q 2491 -122 2388 81 
Q 2284 288 2391 838 
L 2797 2925 
L 1506 2925 
L 938 0 
L 350 0 
L 919 2925 
L 472 2925 
L 584 3500 
z
" transform="scale(0.015625)"/>
      <path id="DejaVuSans-32" d="M 1228 531 
L 3431 531 
L 3431 0 
L 469 0 
L 469 531 
Q 828 903 1448 1529 
Q 2069 2156 2228 2338 
Q 2531 2678 2651 2914 
Q 2772 3150 2772 3378 
Q 2772 3750 2511 3984 
Q 2250 4219 1831 4219 
Q 1534 4219 1204 4116 
Q 875 4013 500 3803 
L 500 4441 
Q 881 4594 1212 4672 
Q 1544 4750 1819 4750 
Q 2544 4750 2975 4387 
Q 3406 4025 3406 3419 
Q 3406 3131 3298 2873 
Q 3191 2616 2906 2266 
Q 2828 2175 2409 1742 
Q 1991 1309 1228 531 
z
" transform="scale(0.015625)"/>
     </defs>
     <use xlink:href="#DejaVuSans-Oblique-3c0" transform="translate(1 45.71875) scale(0.7)"/>
     <use xlink:href="#DejaVuSans-32" transform="translate(0 -38.81875) scale(0.7)"/>
     <path d="M 0 19.384375 
L 0 25.634375 
L 44.536133 25.634375 
L 44.536133 19.384375 
L 0 19.384375 
z
"/>
    </g>
   </g>
   <g id="legend_1">
    <g id="patch_7">
     <path d="M 148.56 309.71 
L 249.26 309.71 
Q 251.26 309.71 251.26 307.71 
L 251.26 289.51 
Q 251.26 287.51 249.26 287.51 
L 148.56 287.51 
Q 146.56 287.51 146.56 289.51 
L 146.56 307.71 
Q 146.56 309.71 148.56 309.71 
z
" style="fill: #ffffff; opacity: 0.8; stroke: #cccccc; stroke-linejoin: miter"/>
    </g>
    <g id="line2d_14">
     <path d="M 150.56 300.130313 
L 160.56 300.130313 
L 170.56 300.130313 
" style="fill: none; stroke: #1f77b4; stroke-width: 1.5; stroke-linecap: square"/>
    </g>
    <g id="text_10">
     <!-- $f(x) = \sqrt{1-x^2}$ -->
     <g transform="translate(178.56 303.630313) scale(0.1 -0.1)">
      <defs>
       <path id="STIXSizeOneSym-Regular-221a" d="M 6970 9933 
L 3373 -1888 
L 3104 -1888 
L 1626 2918 
Q 1555 3149 1465 3251 
Q 1376 3354 1229 3354 
Q 1011 3354 794 3181 
L 717 3309 
L 1766 4115 
L 1926 4115 
L 3379 -602 
L 3405 -602 
L 6605 9933 
L 6970 9933 
z
" transform="scale(0.015625)"/>
      </defs>
      <use xlink:href="#DejaVuSans-Oblique-66" transform="translate(0 0.53125)"/>
      <use xlink:href="#DejaVuSans-28" transform="translate(35.205078 0.53125)"/>
      <use xlink:href="#DejaVuSans-Oblique-78" transform="translate(74.21875 0.53125)"/>
      <use xlink:href="#DejaVuSans-29" transform="translate(133.398438 0.53125)"/>
      <use xlink:href="#DejaVuSans-3d" transform="translate(191.894531 0.53125)"/>
      <use xlink:href="#STIXSizeOneSym-Regular-221a" transform="translate(295.166016 19.9375) scale(0.657728)"/>
      <use xlink:href="#DejaVuSans-31" transform="translate(377.180267 0.515625)"/>
      <use xlink:href="#DejaVuSans-2212" transform="translate(460.285736 0.515625)"/>
      <use xlink:href="#DejaVuSans-Oblique-78" transform="translate(563.55722 0.515625)"/>
      <use xlink:href="#DejaVuSans-32" transform="translate(627.203054 38.796875) scale(0.7)"/>
      <path d="M 364.680267 115.5 
L 364.680267 121.75 
L 686.973562 121.75 
L 686.973562 115.5 
L 364.680267 115.5 
z
"/>
     </g>
    </g>
   </g>
  </g>
 </g>
 <defs>
  <clipPath id="p4d0553aaa3">
   <rect x="48.62" y="14.13" width="300.58" height="300.58"/>
  </clipPath>
 </defs>
</svg>
